<svg width="24" height="24" viewBox="0 0 24 24" fill="none" xmlns="http://www.w3.org/2000/svg">
<path fill-rule="evenodd" clip-rule="evenodd" d="M21.9421 17.1496C22.9576 19.0457 21.6003 21.3506 19.4682 21.3506H4.53177C2.39977 21.3506 1.04242 19.0457 2.05786 17.1496L9.52607 3.20462C10.5902 1.21752 13.4097 1.21752 14.4739 3.20462L21.9421 17.1496ZM10.2465 8.72362C10.1833 7.71218 10.9866 6.85714 12 6.85714C13.0134 6.85714 13.8167 7.71218 13.7535 8.72362L13.4901 12.9378C13.4409 13.7246 12.7884 14.3376 12 14.3376C11.2116 14.3376 10.5591 13.7246 10.5099 12.9378L10.2465 8.72362ZM12 15.2727C10.9672 15.2727 10.1299 16.11 10.1299 17.1428C10.1299 18.1757 10.9672 19.013 12 19.013C13.0328 19.013 13.8701 18.1757 13.8701 17.1428C13.8701 16.11 13.0328 15.2727 12 15.2727Z" fill="#FF6F80"/>
</svg>
