<svg width="24" height="24" viewBox="0 0 24 24" fill="none" xmlns="http://www.w3.org/2000/svg">
<path d="M15.2179 17.7046C14.8249 18.0985 14.1877 18.0985 13.7947 17.7046C13.4018 17.3108 13.4018 16.6723 13.7947 16.2785L18.0641 12L13.7947 7.72153C13.4018 7.3277 13.4018 6.68919 13.7947 6.29537C14.1877 5.90154 14.8249 5.90154 15.2179 6.29537L20.2098 11.2979C20.5967 11.6857 20.5967 12.3143 20.2098 12.7021L15.2179 17.7046Z" fill="#FF87A4"/>
<path d="M4.50006 13C3.94778 13 3.50006 12.5523 3.50006 12V12C3.50006 11.4477 3.94778 11 4.50006 11H19.5001V13H4.50006Z" fill="#FF87A4"/>
</svg>
