<svg width="24" height="24" viewBox="0 0 24 24" fill="none" xmlns="http://www.w3.org/2000/svg">
<path fill-rule="evenodd" clip-rule="evenodd" d="M6.28577 1.71423C5.1812 1.71423 4.28577 2.60967 4.28577 3.71424V20.2857C4.28577 21.3902 5.1812 22.2857 6.28577 22.2857H17.7143C18.8189 22.2857 19.7143 21.3902 19.7143 20.2857V5.99994H7.28584C6.57576 5.99994 6.00012 5.42431 6.00012 4.71422C6.00012 4.00414 6.57576 3.42851 7.28584 3.42851H19.6941C19.5554 2.45929 18.7219 1.71423 17.7143 1.71423H6.28577Z" fill="#7F8DA3"/>
<path d="M8.57153 6.14282C8.57153 5.59054 9.01925 5.14282 9.57153 5.14282H12.7144C13.2667 5.14282 13.7144 5.59054 13.7144 6.14282V12.598C13.7144 13.4171 12.7836 13.8888 12.123 13.4044L11.143 12.6857L10.1629 13.4044C9.50237 13.8888 8.57153 13.4171 8.57153 12.598V6.14282Z" fill="#B4BED7"/>
</svg>
