<svg width="24" height="24" viewBox="0 0 24 24" fill="none" xmlns="http://www.w3.org/2000/svg">
<path d="M2 13H22V20C22 20.5523 21.5523 21 21 21H3C2.44772 21 2 20.5523 2 20V13Z" fill="#7F8DA3"/>
<path d="M2 8C2 7.44772 2.44772 7 3 7H21C21.5523 7 22 7.44772 22 8V11H2V8Z" fill="#7F8DA3"/>
<path fill-rule="evenodd" clip-rule="evenodd" d="M15 6C15 5.44772 14.5523 5 14 5H10C9.44772 5 9 5.44772 9 6V7H15V6ZM9 3C7.89543 3 7 3.89543 7 5V9H17V5C17 3.89543 16.1046 3 15 3H9Z" fill="#7F8DA3"/>
<path d="M7 10.5C6.17157 10.5 5.5 11.1716 5.5 12V14C5.5 14.8284 6.17157 15.5 7 15.5C7.82843 15.5 8.5 14.8284 8.5 14V12C8.5 11.1716 7.82843 10.5 7 10.5Z" fill="#B4BED7" stroke="white"/>
<path d="M17 10.5C16.1716 10.5 15.5 11.1716 15.5 12V14C15.5 14.8284 16.1716 15.5 17 15.5C17.8284 15.5 18.5 14.8284 18.5 14V12C18.5 11.1716 17.8284 10.5 17 10.5Z" fill="#B4BED7" stroke="white"/>
</svg>
