<svg width="24" height="24" viewBox="0 0 24 24" fill="none" xmlns="http://www.w3.org/2000/svg">
<path fill-rule="evenodd" clip-rule="evenodd" d="M24 0H0V24H24V0ZM2.43999 4.56444C1.85334 3.97779 1.85334 3.02664 2.43999 2.43999C3.02664 1.85334 3.97778 1.85334 4.56444 2.43999L12 9.87555L19.4356 2.43999C20.0222 1.85334 20.9734 1.85334 21.56 2.43999C22.1467 3.02664 22.1467 3.97778 21.56 4.56444L14.1244 12L21.56 19.4356C22.1467 20.0222 22.1467 20.9734 21.56 21.56C20.9734 22.1467 20.0222 22.1467 19.4356 21.56L12 14.1244L4.56444 21.56C3.97779 22.1467 3.02664 22.1467 2.43999 21.56C1.85334 20.9734 1.85334 20.0222 2.43999 19.4356L9.87555 12L2.43999 4.56444Z" fill="white"/>
</svg>
