<svg width="24" height="25" viewBox="0 0 24 25" fill="none" xmlns="http://www.w3.org/2000/svg">
<path d="M12 13.7647C15.2761 13.7647 17.5408 15.3609 18.8184 17.7935C19.615 19.3104 20.0134 20.0689 19.4299 21.0344C18.8463 22 17.7655 22 15.6039 22H8.39614C6.23449 22 5.15367 22 4.57015 21.0344C3.98663 20.0689 4.38496 19.3104 5.18162 17.7935C6.45924 15.3609 8.72387 13.7647 12 13.7647Z" fill="#7F8DA3"/>
<ellipse cx="12" cy="7.29412" rx="5.53846" ry="5.29412" fill="#7F8DA3"/>
<path d="M15.6445 16.1537L15.7164 16.6485L15.6445 16.1537L14.2269 16.3597C12.9966 16.5385 12.5053 18.0505 13.3956 18.9183L14.4214 19.9181C14.5392 20.033 14.593 20.1985 14.5652 20.3607L14.323 21.7725C14.1128 22.9979 15.399 23.9323 16.4994 23.3538L17.7673 22.6872C17.913 22.6106 18.087 22.6106 18.2327 22.6872L19.5006 23.3538C20.601 23.9323 21.8872 22.9979 21.677 21.7725L21.4348 20.3607C21.407 20.1985 21.4608 20.033 21.5786 19.9181L22.6044 18.9183C23.4947 18.0505 23.0034 16.5385 21.7731 16.3597L20.3555 16.1537C20.1927 16.1301 20.0519 16.0278 19.9791 15.8802L19.3451 14.5957C18.7949 13.4808 17.2051 13.4808 16.6549 14.5957L16.0209 15.8802C15.9481 16.0278 15.8073 16.1301 15.6445 16.1537Z" fill="#B4BED7" stroke="white"/>
</svg>
