<svg width="24" height="24" viewBox="0 0 24 24" fill="none" xmlns="http://www.w3.org/2000/svg">
<path d="M15 6C15 5.44772 15.4477 5 16 5H17C17.5523 5 18 5.44772 18 6V18C18 18.5523 17.5523 19 17 19H16C15.4477 19 15 18.5523 15 18V6Z" fill="#B4BED7"/>
<path d="M19 8C19 7.44772 19.4477 7 20 7H21C21.5523 7 22 7.44772 22 8V16C22 16.5523 21.5523 17 21 17H20C19.4477 17 19 16.5523 19 16V8Z" fill="#B4BED7"/>
<path d="M2 5C2 3.89543 2.89543 3 4 3H12C13.1046 3 14 3.89543 14 5V19C14 20.1046 13.1046 21 12 21H4C2.89543 21 2 20.1046 2 19V5Z" fill="#7F8DA3"/>
</svg>
