<svg width="24" height="24" viewBox="0 0 24 24" fill="none" xmlns="http://www.w3.org/2000/svg">
<path fill-rule="evenodd" clip-rule="evenodd" d="M24 0H0V24H24V0ZM1.5 12C1.5 6.20297 6.20297 1.5 12 1.5C17.797 1.5 22.5 6.19781 22.5 12C22.5 17.8022 17.797 22.5 12 22.5C6.20297 22.5 1.5 17.797 1.5 12ZM20.7291 11.4202C20.6046 9.54925 19.8815 7.76805 18.6666 6.33984C17.7422 7.69594 16.1287 8.88844 14.0353 9.79594C14.2922 10.343 14.5275 10.9116 14.7572 11.4914C16.5727 11.3217 18.8367 11.3217 20.7291 11.4202ZM17.5837 5.26266C16.0156 3.95866 14.0395 3.24634 12 3.24984C11.2725 3.25322 10.5482 3.3469 9.84375 3.52875C11.092 4.80328 12.2625 6.42188 13.2797 8.30297C15.1392 7.51266 16.6322 6.46547 17.5837 5.26266ZM11.5298 8.94141C10.4906 7.06641 9.30375 5.46469 8.04047 4.20703C6.92981 4.77161 5.95244 5.56673 5.17367 6.53927C4.3949 7.5118 3.83266 8.63935 3.52453 9.84656C3.9675 9.87422 4.41563 9.89062 4.875 9.89062C7.29141 9.89062 9.55547 9.54469 11.5298 8.94141ZM4.77562 11.6119C4.26703 11.617 3.76406 11.6062 3.26625 11.5842C3.25547 11.7211 3.24984 11.8594 3.24984 12C3.25007 14.1274 4.02813 16.1814 5.4375 17.775C6.72281 15.3084 9.09609 13.2689 12.1092 12.0033C12.3637 11.9056 12.6252 11.8272 12.8916 11.7689C12.7056 11.3152 12.5088 10.8722 12.3009 10.44C10.0969 11.1469 7.53187 11.5791 4.77562 11.6119ZM6.63516 18.907C8.16724 20.1036 10.056 20.7525 12 20.7502C13.0576 20.7489 14.1061 20.5543 15.0938 20.1759C14.9223 18.7354 14.6525 17.3083 14.2861 15.9047C14.0408 14.9747 13.7619 14.0778 13.4494 13.2141C13.072 13.2961 12.7439 13.3889 12.4978 13.5037C9.87797 14.6883 7.8 16.5994 6.63516 18.907ZM15.9155 15.0408C16.2871 16.4584 16.5595 17.9001 16.7306 19.3556C17.825 18.6529 18.7488 17.7148 19.4347 16.6097C20.1206 15.5047 20.5512 14.2606 20.6953 12.968C19.0603 12.8475 17.0039 12.8273 15.2869 12.968C15.5166 13.6406 15.728 14.3297 15.9155 15.0408Z" fill="#F6F7FD"/>
</svg>
