<svg width="24" height="24" viewBox="0 0 24 24" fill="none" xmlns="http://www.w3.org/2000/svg">
<path fill-rule="evenodd" clip-rule="evenodd" d="M5.143 5.14282C4.19622 5.14282 3.42871 5.91033 3.42871 6.85711V18.8571C3.42871 19.8039 4.19622 20.5714 5.143 20.5714H8.36374C8.85302 20.5714 9.17126 20.0565 8.95244 19.6189C8.70197 19.1179 8.57157 18.5642 8.57157 18.0041C8.57157 16.5839 9.72284 15.4285 11.143 15.4285C12.5632 15.4285 13.7144 16.5839 13.7144 18.0041C13.7144 18.5642 13.584 19.1179 13.3336 19.6189C13.1147 20.0565 13.433 20.5714 13.9223 20.5714H17.143C18.0898 20.5714 18.8573 19.8039 18.8573 18.8571V6.85711C18.8573 5.91033 18.0898 5.14282 17.143 5.14282H5.143Z" fill="#7F8DA3"/>
<path d="M8.57153 2.57555C8.57153 1.15539 9.7228 0 11.143 0C12.5631 0 13.7144 1.15539 13.7144 2.57555C13.7144 3.13562 13.584 3.68937 13.3335 4.19032L12.8572 5.14286H9.42868L8.95241 4.19032C8.70193 3.68937 8.57153 3.13562 8.57153 2.57555Z" fill="#7F8DA3"/>
<path d="M18.8573 11.1429L19.8098 10.6666C20.3108 10.4162 20.8645 10.2858 21.4246 10.2858C22.8448 10.2858 24.0002 11.437 24.0002 12.8572C24.0002 14.2774 22.8448 15.4286 21.4246 15.4286C20.8645 15.4286 20.3108 15.2982 19.8098 15.0478L18.8573 14.5715V11.1429Z" fill="#7F8DA3"/>
</svg>
