<svg width="24" height="24" viewBox="0 0 24 24" fill="none" xmlns="http://www.w3.org/2000/svg">
<path fill-rule="evenodd" clip-rule="evenodd" d="M24 0H0V24H24V0ZM12 1.56348C17.7984 1.56348 22.5 6.26504 22.5 12.0635C22.5 17.3055 18.6609 21.6494 13.6402 22.4374V15.1H16.087L16.552 12.0639H13.6402V10.0943C13.6402 9.26269 14.048 8.45363 15.3516 8.45363H16.6763V5.86941C16.6763 5.86941 15.4744 5.6641 14.3255 5.6641C11.9273 5.6641 10.3594 7.11863 10.3594 9.74973V12.0635H7.69266V15.0996H10.3594V22.4364C5.33906 21.648 1.5 17.3041 1.5 12.0635C1.5 6.26504 6.20156 1.56348 12 1.56348Z" fill="#F6F7FD"/>
</svg>
