<svg width="24" height="24" viewBox="0 0 24 24" fill="none" xmlns="http://www.w3.org/2000/svg">
<path fill-rule="evenodd" clip-rule="evenodd" d="M12 23C19.0909 23 24 15 24 15C24 15 19.0909 7 12 7C4.90909 7 0 15 0 15C0 15 4.90909 23 12 23ZM12 19C14.2091 19 16 17.2091 16 15C16 12.7909 14.2091 11 12 11C9.79086 11 8 12.7909 8 15C8 17.2091 9.79086 19 12 19Z" fill="#7F8DA3"/>
<rect x="10.5" y="1" width="3" height="5" rx="1" fill="#B4BED7"/>
<rect y="5.12134" width="3" height="5" rx="1" transform="rotate(-45 0 5.12134)" fill="#B4BED7"/>
<rect x="21.5356" y="3" width="3" height="5" rx="1" transform="rotate(45 21.5356 3)" fill="#B4BED7"/>
</svg>
