<svg width="24" height="24" viewBox="0 0 24 24" fill="none" xmlns="http://www.w3.org/2000/svg">
<path d="M11.3443 0.569863C11.7205 0.243081 12.2798 0.243082 12.6559 0.569863L14.7207 2.36359C14.9253 2.54135 15.1933 2.62843 15.4634 2.60489L18.1881 2.36736C18.6845 2.32409 19.137 2.65286 19.2492 3.13833L19.8653 5.80311C19.9264 6.06719 20.092 6.29518 20.3243 6.43486L22.6683 7.84425C23.0953 8.10102 23.2682 8.63298 23.0736 9.0917L22.0057 11.6097C21.8999 11.8592 21.8999 12.141 22.0057 12.3906L23.0736 14.9085C23.2682 15.3673 23.0953 15.8992 22.6683 16.156L20.3243 17.5654C20.092 17.7051 19.9264 17.933 19.8653 18.1971L19.2492 20.8619C19.137 21.3474 18.6845 21.6762 18.1881 21.6329L15.4634 21.3953C15.1933 21.3718 14.9253 21.4589 14.7207 21.6367L12.6559 23.4304C12.2798 23.7572 11.7205 23.7572 11.3443 23.4304L9.27956 21.6367C9.07494 21.4589 8.80692 21.3718 8.53689 21.3953L5.81216 21.6329C5.31576 21.6762 4.86325 21.3474 4.75101 20.8619L4.13493 18.1971C4.07387 17.933 3.90823 17.7051 3.67593 17.5654L1.33196 16.156C0.904934 15.8992 0.73209 15.3673 0.92664 14.9085L1.99453 12.3906C2.10036 12.141 2.10036 11.8592 1.99453 11.6097L0.926639 9.0917C0.73209 8.63298 0.904935 8.10102 1.33196 7.84425L3.67593 6.43486C3.90823 6.29518 4.07387 6.06719 4.13493 5.80311L4.75101 3.13833C4.86325 2.65286 5.31576 2.32409 5.81216 2.36736L8.53689 2.60489C8.80692 2.62843 9.07494 2.54135 9.27956 2.36359L11.3443 0.569863Z" fill="#7F8DA3"/>
<circle cx="12" cy="12" r="7.5" fill="#7F8DA3" stroke="white"/>
<path d="M14.66 13.01C14.66 13.5433 14.4733 13.9933 14.1 14.36C13.7333 14.7267 13.2367 14.9567 12.61 15.05V15.68C12.61 15.8333 12.5633 15.9567 12.47 16.05C12.3767 16.15 12.2533 16.2 12.1 16.2C11.9467 16.2 11.8233 16.15 11.73 16.05C11.6367 15.9567 11.59 15.8333 11.59 15.68V15.07C11.21 15.0367 10.84 14.9567 10.48 14.83C10.12 14.7033 9.81 14.5367 9.55 14.33C9.46333 14.27 9.40333 14.2033 9.37 14.13C9.33667 14.0567 9.32 13.9667 9.32 13.86C9.32 13.72 9.36 13.5967 9.44 13.49C9.52667 13.3833 9.62333 13.33 9.73 13.33C9.79667 13.33 9.85667 13.3433 9.91 13.37C9.97 13.39 10.0467 13.4267 10.14 13.48C10.4467 13.68 10.7467 13.8267 11.04 13.92C11.34 14.0133 11.6533 14.06 11.98 14.06C12.4267 14.06 12.77 13.9733 13.01 13.8C13.2567 13.6267 13.38 13.3767 13.38 13.05C13.38 12.8567 13.3133 12.7 13.18 12.58C13.0467 12.46 12.88 12.3667 12.68 12.3C12.48 12.2267 12.2 12.1433 11.84 12.05C11.34 11.9233 10.9333 11.7967 10.62 11.67C10.3067 11.5367 10.0367 11.3367 9.81 11.07C9.58333 10.8033 9.47 10.4433 9.47 9.99C9.47 9.45 9.66333 8.99 10.05 8.61C10.4367 8.23 10.9433 7.99333 11.57 7.9V7.27C11.57 7.11667 11.6167 6.99333 11.71 6.9C11.8033 6.8 11.9267 6.75 12.08 6.75C12.2333 6.75 12.3567 6.8 12.45 6.9C12.5433 6.99333 12.59 7.11667 12.59 7.27V7.89C13.2633 7.97667 13.8433 8.22 14.33 8.62C14.49 8.74 14.57 8.89667 14.57 9.09C14.57 9.23 14.5267 9.35333 14.44 9.46C14.36 9.56667 14.2633 9.62 14.15 9.62C14.09 9.62 14.03 9.61 13.97 9.59C13.9167 9.57 13.8433 9.53 13.75 9.47C13.4767 9.27667 13.2167 9.13333 12.97 9.04C12.73 8.94 12.4433 8.89 12.11 8.89C11.6967 8.89 11.3667 8.98333 11.12 9.17C10.8733 9.35 10.75 9.6 10.75 9.92C10.75 10.14 10.82 10.32 10.96 10.46C11.1 10.5933 11.2767 10.6967 11.49 10.77C11.7033 10.8433 11.9933 10.9267 12.36 11.02C12.8467 11.14 13.2433 11.2633 13.55 11.39C13.8567 11.5167 14.1167 11.71 14.33 11.97C14.55 12.2233 14.66 12.57 14.66 13.01Z" fill="white"/>
</svg>
