<svg width="24" height="24" viewBox="0 0 24 24" fill="none" xmlns="http://www.w3.org/2000/svg">
<path d="M3.42859 6.42859C3.42859 4.77174 4.77173 3.42859 6.42859 3.42859H17.5714C19.2283 3.42859 20.5714 4.77173 20.5714 6.42859V19.2857C20.5714 20.9426 19.2283 22.2857 17.5714 22.2857H6.42859C4.77173 22.2857 3.42859 20.9426 3.42859 19.2857V6.42859Z" fill="#7F8DA3"/>
<path d="M7.1438 12.9585L10.2657 16.0707C10.6489 16.4527 11.2701 16.4527 11.6532 16.0707L16.8564 10.8836C17.048 10.6927 17.048 10.383 16.8564 10.192L16.1627 9.50041C15.9711 9.30943 15.6605 9.30943 15.4689 9.50041L10.9595 13.9959L8.53132 11.5752C8.33975 11.3843 8.02914 11.3843 7.83756 11.5752L7.1438 12.2669C6.95223 12.4578 6.95223 12.7675 7.1438 12.9585Z" fill="white"/>
<rect x="6.85718" y="1.71429" width="10.2857" height="3.42857" rx="1" fill="#B4BED7"/>
</svg>
