<svg width="24" height="24" viewBox="0 0 24 24" fill="none" xmlns="http://www.w3.org/2000/svg">
<path fill-rule="evenodd" clip-rule="evenodd" d="M24 0H0V24H24V0ZM20.4852 3.51469C20.8758 3.90522 20.8758 4.53838 20.4852 4.92891L4.92889 20.4853C4.53837 20.8758 3.90521 20.8758 3.51468 20.4853C3.12416 20.0947 3.12416 19.4616 3.51468 19.071L5.74392 16.8418C2.79045 14.7851 1 12 1 12C1 12 5.5 4.99997 12 4.99997C13.6334 4.99997 15.1406 5.44203 16.4818 6.10397L19.071 3.51469C19.4616 3.12417 20.0947 3.12417 20.4852 3.51469ZM14.0319 8.55378L8.55381 14.0319C8.20193 13.4364 8 12.7418 8 12C8 9.79083 9.79086 7.99997 12 7.99997C12.7418 7.99997 13.4364 8.2019 14.0319 8.55378ZM23 12C23 12 18.5 19 12 19C11.0755 19 10.1915 18.8584 9.35509 18.6154L11.9707 15.9999L12 16C14.2091 16 16 14.2091 16 12L15.9999 11.9706L19.6901 8.28045C21.7789 10.1005 23 12 23 12Z" fill="white"/>
</svg>
