<svg width="106" height="30" viewBox="0 0 106 30" fill="none" xmlns="http://www.w3.org/2000/svg">
<path d="M44.8404 4.72487L34.852 14.4961C34.5694 14.7726 34.5694 15.2274 34.852 15.5039L44.8404 25.2751C45.1144 25.5432 45.5523 25.5432 45.8263 25.2751L48.9628 22.2068L51.0833 24.375L46.3192 29.0355C45.7713 29.5716 44.8954 29.5716 44.3474 29.0355L31.0302 16.0078C30.4649 15.4548 30.4649 14.5452 31.0302 13.9922L44.3474 0.964458C44.8954 0.428408 45.7713 0.428408 46.3192 0.964458L53 7.5L50.8315 9.62132L45.8263 4.72487C45.5523 4.45684 45.1144 4.45684 44.8404 4.72487Z" fill="#D6DBEB"/>
<path d="M55.1685 20.3787L60.1737 25.2751C60.4477 25.5432 60.8856 25.5432 61.1596 25.2751L71.148 15.5039C71.4306 15.2274 71.4306 14.7726 71.148 14.4961L61.1596 4.72487C60.8856 4.45684 60.4477 4.45684 60.1737 4.72487L57.0372 7.7932L54.9167 5.625L59.6808 0.964458C60.2287 0.428408 61.1046 0.428407 61.6526 0.964457L74.9698 13.9922C75.5351 14.5452 75.5351 15.4548 74.9698 16.0078L61.6526 29.0355C61.1046 29.5716 60.2287 29.5716 59.6808 29.0355L53 22.5L55.1685 20.3787Z" fill="#D6DBEB"/>
<path fill-rule="evenodd" clip-rule="evenodd" d="M55.1685 20.3784L60.6667 14.9998L53 7.49976L50.8316 9.62108L45.3334 14.9998L53 22.4998L55.1685 20.3784Z" fill="#FF87A4"/>
<path fill-rule="evenodd" clip-rule="evenodd" d="M19.6971 18.8834L24 14.674L18 8.80444L16.3029 10.4646L12 14.674L18 20.5436L19.6971 18.8834Z" fill="#FF87A4"/>
<path fill-rule="evenodd" clip-rule="evenodd" d="M3.84853 16.7785L6 14.6738L3 11.739L2.15147 12.5691L0 14.6738L3 17.6086L3.84853 16.7785ZM3 13.3992L1.69706 14.6738L3 15.9484L4.30294 14.6738L3 13.3992Z" fill="#D6DBEB"/>
<path d="M1.69706 14.6738L3 13.3992L4.30294 14.6738L3 15.9484L1.69706 14.6738Z" fill="#D6DBEB"/>
<path fill-rule="evenodd" clip-rule="evenodd" d="M103.849 16.7785L106 14.6738L103 11.739L102.151 12.5691L100 14.6738L103 17.6086L103.849 16.7785ZM103 13.3992L101.697 14.6738L103 15.9484L104.303 14.6738L103 13.3992Z" fill="#D6DBEB"/>
<path d="M101.697 14.6738L103 13.3992L104.303 14.6738L103 15.9484L101.697 14.6738Z" fill="#D6DBEB"/>
<path fill-rule="evenodd" clip-rule="evenodd" d="M89.6971 18.8834L94 14.674L88 8.80444L86.3029 10.4646L82 14.674L88 20.5436L89.6971 18.8834Z" fill="#FF87A4"/>
</svg>
