<svg width="252" height="210" viewBox="0 0 252 210" fill="none" xmlns="http://www.w3.org/2000/svg">
<rect x="27.5061" y="189.491" width="36" height="36" rx="2" transform="rotate(-76.3695 27.5061 189.491)" fill="#1CCCE3"/>
<rect opacity="0.8" x="3.29742" y="128.849" width="46" height="46" rx="2" transform="rotate(-24.0386 3.29742 128.849)" fill="#58677C"/>
<rect x="124.308" y="182" width="20" height="20" rx="2" transform="rotate(30.853 124.308 182)" fill="#FF87A4"/>
<rect x="28.4113" y="48" width="16" height="16" rx="1" transform="rotate(27.5882 28.4113 48)" fill="#1CCCE3"/>
<rect opacity="0.8" x="128" y="134.346" width="14" height="14" rx="1" transform="rotate(-21.2345 128 134.346)" fill="#58677C"/>
<rect x="251.401" y="189.413" width="8" height="8" rx="1" transform="rotate(93.0627 251.401 189.413)" fill="#31374D"/>
<rect x="233.03" y="152.256" width="8" height="8" rx="1" transform="rotate(122.137 233.03 152.256)" fill="#1CCCE3"/>
<rect opacity="0.8" x="7.15228" width="10" height="10" rx="1" transform="rotate(45.6618 7.15228 0)" fill="#FF87A4"/>
<rect x="175" y="176.257" width="14" height="14" rx="1" transform="rotate(-26.5464 175 176.257)" fill="#31374D"/>
</svg>
