<svg width="201" height="200" viewBox="0 0 201 200" fill="none" xmlns="http://www.w3.org/2000/svg">
<rect x="127.001" y="16.8821" width="48" height="48" rx="2" transform="rotate(-20.592 127.001 16.8821)" fill="#1CCCE3"/>
<rect opacity="0.8" x="124.341" y="39.7354" width="36" height="36" rx="2" transform="rotate(-0.628868 124.341 39.7354)" fill="#58677C"/>
<rect opacity="0.8" x="148.312" y="100" width="24" height="24" rx="2" transform="rotate(17.736 148.312 100)" fill="#FF87A4"/>
<rect opacity="0.8" x="89.262" y="38" width="16" height="16" rx="1" transform="rotate(55.9748 89.262 38)" fill="#1CCCE3"/>
<rect opacity="0.8" x="197.62" y="154" width="12" height="12" rx="1" transform="rotate(75.5222 197.62 154)" fill="#1CCCE3"/>
<rect x="11.4363" y="19" width="12" height="12" rx="1" transform="rotate(68.3582 11.4363 19)" fill="#31374D"/>
<rect opacity="0.8" x="163.536" y="191.723" width="8" height="8" rx="1" transform="rotate(102.436 163.536 191.723)" fill="#58677C"/>
<rect opacity="0.8" x="58.675" y="67.9441" width="10" height="10" rx="1" transform="rotate(111.213 58.675 67.9441)" fill="#58677C"/>
<rect x="47.6626" width="10" height="10" rx="1" transform="rotate(27.784 47.6626 0)" fill="#FF87A4"/>
</svg>
