<svg width="27" height="18" viewBox="0 0 27 18" fill="none" xmlns="http://www.w3.org/2000/svg">
<path d="M8.50155 3.04404L3.04404 8.50155C2.76875 8.77684 2.76875 9.22316 3.04404 9.49845L8.50155 14.956C8.77683 15.2313 9.22316 15.2313 9.49845 14.956L11.1303 13.3241L12.375 14.625L9.9969 17.0031C9.44633 17.5537 8.55367 17.5537 8.0031 17.0031L0.996904 9.9969C0.446329 9.44633 0.446328 8.55367 0.996903 8.0031L8.00309 0.996905C8.55367 0.446329 9.44633 0.446328 9.9969 0.996904L13.5 4.5L12.2272 5.77279L9.49845 3.04404C9.22316 2.76875 8.77684 2.76875 8.50155 3.04404Z" fill="#31374D"/>
<path d="M14.7728 12.2272L17.5015 14.956C17.7768 15.2313 18.2232 15.2313 18.4984 14.956L23.956 9.49845C24.2312 9.22316 24.2313 8.77684 23.956 8.50155L18.4985 3.04404C18.2232 2.76875 17.7768 2.76875 17.5015 3.04404L15.8697 4.67592L14.625 3.375L17.0031 0.996905C17.5537 0.446329 18.4463 0.446328 18.9969 0.996904L26.0031 8.0031C26.5537 8.55367 26.5537 9.44633 26.0031 9.9969L18.9969 17.0031C18.4463 17.5537 17.5537 17.5537 17.0031 17.0031L13.5 13.5L14.7728 12.2272Z" fill="#31374D"/>
<path fill-rule="evenodd" clip-rule="evenodd" d="M14.7728 12.227L18 8.99982L13.5 4.49982L12.2272 5.77261L9 8.99982L13.5 13.4998L14.7728 12.227ZM13.5 7.0454L11.5456 8.99982L13.5 10.9542L15.4544 8.99982L13.5 7.0454Z" fill="#A4EAF4"/>
</svg>
