<svg width="42" height="28" viewBox="0 0 42 28" fill="none" xmlns="http://www.w3.org/2000/svg">
<path d="M13.2929 4.6669L4.6669 13.2929C4.27638 13.6834 4.27638 14.3166 4.6669 14.7071L13.2929 23.3331C13.6834 23.7236 14.3166 23.7236 14.7071 23.3331L17.3139 20.7264L19.25 22.75L15.4142 26.5858C14.6332 27.3668 13.3668 27.3668 12.5858 26.5858L1.41421 15.4142C0.633165 14.6332 0.633164 13.3668 1.41421 12.5858L12.5858 1.41421C13.3668 0.633165 14.6332 0.633164 15.4142 1.41421L21 7L19.0201 8.9799L14.7071 4.6669C14.3166 4.27638 13.6834 4.27638 13.2929 4.6669Z" fill="#31374D"/>
<path d="M22.9799 19.0201L27.2929 23.3331C27.6834 23.7236 28.3166 23.7236 28.7071 23.3331L37.3331 14.7071C37.7236 14.3166 37.7236 13.6834 37.3331 13.2929L28.7071 4.6669C28.3166 4.27638 27.6834 4.27638 27.2929 4.6669L24.6861 7.27365L22.75 5.25L26.5858 1.41421C27.3668 0.633165 28.6332 0.633164 29.4142 1.41421L40.5858 12.5858C41.3668 13.3668 41.3668 14.6332 40.5858 15.4142L29.4142 26.5858C28.6332 27.3668 27.3668 27.3668 26.5858 26.5858L21 21L22.9799 19.0201Z" fill="#31374D"/>
<path fill-rule="evenodd" clip-rule="evenodd" d="M22.9799 19.0201L28 14L21 7L19.0201 8.9799L14 14L21 21L22.9799 19.0201ZM21 10.9598L17.9598 14L21 17.0402L24.0402 14L21 10.9598Z" fill="#1CCCE3"/>
</svg>
