<svg width="350" height="233" viewBox="0 0 350 233" fill="none" xmlns="http://www.w3.org/2000/svg">
<g opacity="0.8">
<rect opacity="0.6" width="38" height="38" rx="2" transform="matrix(-0.270535 0.96271 0.96271 0.270535 312.974 13.1717)" fill="#A4EAF4"/>
<rect opacity="0.6" width="30" height="30" rx="2" transform="matrix(0.120001 0.992774 0.992774 -0.120001 291.399 44.5318)" fill="#31374D"/>
<rect opacity="0.4" width="24" height="24" rx="2" transform="matrix(0.17056 0.985347 0.985347 -0.17056 246 11.0934)" fill="#31374D"/>
<rect opacity="0.4" width="28" height="28" rx="2" transform="matrix(0.928559 0.371184 0.371184 -0.928559 220.147 45.1463)" fill="#A4EAF4"/>
<rect opacity="0.3" width="16" height="16" rx="2" transform="matrix(0.844024 0.536305 0.536305 -0.844024 137 20.5044)" fill="#A4EAF4"/>
<rect opacity="0.4" width="16" height="16" rx="2" transform="matrix(0.70521 -0.708999 -0.708999 -0.70521 317.344 109.627)" fill="#A4EAF4"/>
<rect opacity="0.3" width="14" height="14" rx="2" transform="matrix(0.996901 0.0786652 0.0786652 -0.996901 160 52.9566)" fill="#31374D"/>
<rect opacity="0.4" width="14" height="14" rx="2" transform="matrix(0.858599 0.512648 0.512648 -0.858599 329 134.02)" fill="#31374D"/>
<rect opacity="0.3" width="10" height="10" rx="1" transform="matrix(0.858599 0.512648 0.512648 -0.858599 317 165.586)" fill="#31374D"/>
<rect opacity="0.3" width="20" height="20" rx="2" transform="matrix(0.480723 0.876872 0.876872 -0.480723 181.437 10.0508)" fill="#31374D"/>
<rect opacity="0.2" width="8" height="8" rx="1" transform="matrix(0.986875 -0.161483 -0.161483 -0.986875 89.292 45.1869)" fill="#A4EAF4"/>
<rect opacity="0.3" width="10" height="10" rx="1" transform="matrix(0.985836 -0.167711 -0.167711 -0.985836 114.677 32.5355)" fill="#31374D"/>
<rect opacity="0.3" width="10" height="10" rx="1" transform="matrix(0.994823 0.101625 0.101625 -0.994823 313 161.948)" fill="#A4EAF4"/>
<rect opacity="0.3" width="10" height="10" rx="1" transform="matrix(0.945479 0.325684 0.325684 -0.945479 118.824 36.4548)" fill="#A4EAF4"/>
<rect opacity="0.2" width="6" height="6" rx="1" transform="matrix(0.956539 -0.291604 -0.291604 -0.956539 31.7498 44.4889)" fill="#31374D"/>
<rect opacity="0.2" width="8" height="8" rx="1" transform="matrix(0.914108 0.40547 0.40547 -0.914108 71 19.3129)" fill="#31374D"/>
<rect opacity="0.2" width="6" height="6" rx="1" transform="matrix(0.914108 0.40547 0.40547 -0.914108 339 191.485)" fill="#31374D"/>
<rect opacity="0.2" width="6" height="6" rx="1" transform="matrix(0.981922 -0.189289 -0.189289 -0.981922 1.13574 18.0273)" fill="#A4EAF4"/>
<rect opacity="0.2" width="6" height="6" rx="1" transform="matrix(0.981922 -0.189289 -0.189289 -0.981922 329.136 232.027)" fill="#A4EAF4"/>
</g>
</svg>
