<svg width="460" height="423" viewBox="0 0 460 423" fill="none" xmlns="http://www.w3.org/2000/svg">
<g filter="url(#filter0_d)">
<rect x="30" y="20" width="400" height="363" rx="8" fill="white"/>
</g>
<rect x="30.25" y="88.2493" width="399.5" height="0.5" rx="0.25" stroke="#D6DBEB" stroke-width="0.5"/>
<path d="M60.7835 138.793V137.545L65.6603 130.549H67.6632V137.356H69.013V138.793H67.6632V140.999H66.0376V138.793H60.7835ZM66.1102 132.233L62.6849 137.356H66.1102V132.233ZM81.7016 136.805C81.7016 137.105 81.6822 137.376 81.6435 137.617H75.5331C75.5815 138.256 75.8185 138.769 76.2443 139.156C76.67 139.543 77.1925 139.737 77.8118 139.737C78.702 139.737 79.3309 139.364 79.6986 138.619H81.4838C81.2419 139.354 80.8017 139.959 80.1631 140.433C79.5341 140.898 78.7504 141.13 77.8118 141.13C77.0474 141.13 76.3604 140.961 75.7508 140.622C75.1509 140.274 74.6768 139.79 74.3284 139.17C73.9898 138.542 73.8204 137.816 73.8204 136.993C73.8204 136.171 73.9849 135.45 74.3139 134.831C74.6526 134.202 75.1219 133.718 75.7218 133.379C76.3314 133.041 77.028 132.871 77.8118 132.871C78.5665 132.871 79.239 133.036 79.8292 133.365C80.4195 133.694 80.8791 134.158 81.2081 134.758C81.5371 135.348 81.7016 136.031 81.7016 136.805ZM79.9744 136.282C79.9647 135.673 79.747 135.184 79.3213 134.816C78.8955 134.449 78.3682 134.265 77.7392 134.265C77.1683 134.265 76.6797 134.449 76.2733 134.816C75.8669 135.174 75.625 135.663 75.5476 136.282H79.9744ZM82.7783 136.964C82.7783 136.161 82.9428 135.45 83.2718 134.831C83.6105 134.212 84.0652 133.733 84.6361 133.394C85.2167 133.046 85.8601 132.871 86.5665 132.871C87.089 132.871 87.6018 132.988 88.105 133.22C88.6178 133.442 89.0242 133.742 89.3241 134.12V130.259H90.9933V140.999H89.3241V139.795C89.0532 140.182 88.6759 140.501 88.1921 140.753C87.7179 141.004 87.1712 141.13 86.552 141.13C85.8553 141.13 85.2167 140.956 84.6361 140.607C84.0652 140.249 83.6105 139.756 83.2718 139.127C82.9428 138.488 82.7783 137.767 82.7783 136.964ZM89.3241 136.993C89.3241 136.442 89.208 135.963 88.9758 135.557C88.7533 135.15 88.4581 134.84 88.0905 134.628C87.7228 134.415 87.326 134.308 86.9003 134.308C86.4746 134.308 86.0778 134.415 85.7101 134.628C85.3425 134.831 85.0425 135.136 84.8103 135.542C84.5877 135.939 84.4765 136.413 84.4765 136.964C84.4765 137.516 84.5877 138 84.8103 138.416C85.0425 138.832 85.3425 139.151 85.7101 139.374C86.0875 139.587 86.4842 139.693 86.9003 139.693C87.326 139.693 87.7228 139.587 88.0905 139.374C88.4581 139.161 88.7533 138.851 88.9758 138.445C89.208 138.029 89.3241 137.545 89.3241 136.993ZM94.0083 131.943C93.7084 131.943 93.4568 131.841 93.2536 131.638C93.0504 131.435 92.9488 131.183 92.9488 130.883C92.9488 130.583 93.0504 130.331 93.2536 130.128C93.4568 129.925 93.7084 129.823 94.0083 129.823C94.2986 129.823 94.5453 129.925 94.7485 130.128C94.9517 130.331 95.0533 130.583 95.0533 130.883C95.0533 131.183 94.9517 131.435 94.7485 131.638C94.5453 131.841 94.2986 131.943 94.0083 131.943ZM94.8211 133.002V140.999H93.1665V133.002H94.8211ZM98.9238 134.352V138.779C98.9238 139.079 98.9916 139.296 99.127 139.432C99.2722 139.558 99.5141 139.62 99.8527 139.62H100.869V140.999H99.5624C98.8174 140.999 98.2465 140.825 97.8498 140.477C97.4531 140.128 97.2547 139.562 97.2547 138.779V134.352H96.3113V133.002H97.2547V131.014H98.9238V133.002H100.869V134.352H98.9238ZM105.863 141.13C105.108 141.13 104.426 140.961 103.816 140.622C103.206 140.274 102.728 139.79 102.379 139.17C102.031 138.542 101.857 137.816 101.857 136.993C101.857 136.181 102.036 135.46 102.394 134.831C102.752 134.202 103.24 133.718 103.86 133.379C104.479 133.041 105.171 132.871 105.935 132.871C106.7 132.871 107.391 133.041 108.011 133.379C108.63 133.718 109.119 134.202 109.477 134.831C109.835 135.46 110.014 136.181 110.014 136.993C110.014 137.806 109.83 138.527 109.462 139.156C109.094 139.785 108.591 140.274 107.953 140.622C107.324 140.961 106.627 141.13 105.863 141.13ZM105.863 139.693C106.288 139.693 106.685 139.591 107.053 139.388C107.43 139.185 107.735 138.88 107.967 138.474C108.199 138.067 108.315 137.574 108.315 136.993C108.315 136.413 108.204 135.924 107.982 135.527C107.759 135.121 107.464 134.816 107.096 134.613C106.729 134.41 106.332 134.308 105.906 134.308C105.48 134.308 105.084 134.41 104.716 134.613C104.358 134.816 104.072 135.121 103.86 135.527C103.647 135.924 103.54 136.413 103.54 136.993C103.54 137.855 103.758 138.522 104.193 138.996C104.639 139.461 105.195 139.693 105.863 139.693ZM113.304 134.163C113.546 133.757 113.865 133.442 114.262 133.22C114.668 132.988 115.147 132.871 115.699 132.871V134.584H115.278C114.629 134.584 114.136 134.749 113.797 135.078C113.468 135.407 113.304 135.977 113.304 136.79V140.999H111.649V133.002H113.304V134.163ZM120.122 141.13C119.493 141.13 118.927 141.019 118.424 140.796C117.931 140.564 117.539 140.254 117.249 139.867C116.958 139.47 116.803 139.03 116.784 138.546H118.497C118.526 138.885 118.685 139.17 118.976 139.403C119.276 139.625 119.648 139.737 120.093 139.737C120.558 139.737 120.916 139.649 121.167 139.475C121.429 139.291 121.559 139.059 121.559 138.779C121.559 138.479 121.414 138.256 121.124 138.111C120.843 137.966 120.393 137.806 119.774 137.632C119.174 137.468 118.685 137.308 118.308 137.153C117.931 136.998 117.602 136.761 117.321 136.442C117.05 136.123 116.915 135.702 116.915 135.179C116.915 134.753 117.041 134.366 117.292 134.018C117.544 133.66 117.902 133.379 118.366 133.176C118.84 132.973 119.382 132.871 119.992 132.871C120.901 132.871 121.632 133.104 122.183 133.568C122.745 134.023 123.045 134.647 123.083 135.44H121.429C121.4 135.082 121.254 134.797 120.993 134.584C120.732 134.371 120.379 134.265 119.934 134.265C119.498 134.265 119.164 134.347 118.932 134.511C118.7 134.676 118.584 134.894 118.584 135.165C118.584 135.377 118.661 135.557 118.816 135.702C118.971 135.847 119.16 135.963 119.382 136.05C119.605 136.127 119.934 136.229 120.369 136.355C120.95 136.51 121.424 136.669 121.791 136.834C122.169 136.989 122.493 137.221 122.764 137.53C123.035 137.84 123.175 138.251 123.185 138.764C123.185 139.219 123.059 139.625 122.807 139.983C122.556 140.341 122.198 140.622 121.733 140.825C121.279 141.028 120.742 141.13 120.122 141.13Z" fill="#31374D"/>
<path d="M109.394 177.129V186.999H108.26V182.477H102.352V186.999H101.218V177.129H102.352V181.497H108.26V177.129H109.394ZM114.431 180.013C115.299 180.013 115.943 180.237 116.363 180.685C116.793 181.124 117.007 181.796 117.007 182.701V186.999H115.901V185.837C115.724 186.239 115.453 186.551 115.089 186.775C114.725 186.99 114.305 187.097 113.829 187.097C113.391 187.097 112.985 187.009 112.611 186.831C112.247 186.654 111.958 186.407 111.743 186.089C111.529 185.772 111.421 185.422 111.421 185.039C111.421 184.526 111.552 184.129 111.813 183.849C112.075 183.56 112.504 183.355 113.101 183.233C113.699 183.103 114.529 183.037 115.593 183.037H115.901V182.575C115.901 182.006 115.785 181.595 115.551 181.343C115.318 181.082 114.94 180.951 114.417 180.951C113.633 180.951 112.854 181.194 112.079 181.679L111.701 180.853C112.056 180.601 112.481 180.401 112.975 180.251C113.479 180.093 113.965 180.013 114.431 180.013ZM113.983 186.201C114.543 186.201 115.001 186.015 115.355 185.641C115.719 185.259 115.901 184.769 115.901 184.171V183.765H115.649C114.828 183.765 114.203 183.803 113.773 183.877C113.344 183.943 113.036 184.059 112.849 184.227C112.672 184.386 112.583 184.624 112.583 184.941C112.583 185.305 112.714 185.609 112.975 185.851C113.246 186.085 113.582 186.201 113.983 186.201ZM122.513 180.013C124.147 180.013 124.963 180.914 124.963 182.715V186.999H123.829V182.785C123.829 182.151 123.703 181.689 123.451 181.399C123.209 181.11 122.817 180.965 122.275 180.965C121.65 180.965 121.151 181.157 120.777 181.539C120.404 181.922 120.217 182.44 120.217 183.093V186.999H119.083V180.181H120.203V181.301C120.427 180.881 120.74 180.564 121.141 180.349C121.543 180.125 122 180.013 122.513 180.013ZM130.47 180.013C132.104 180.013 132.92 180.914 132.92 182.715V186.999H131.786V182.785C131.786 182.151 131.66 181.689 131.408 181.399C131.166 181.11 130.774 180.965 130.232 180.965C129.607 180.965 129.108 181.157 128.734 181.539C128.361 181.922 128.174 182.44 128.174 183.093V186.999H127.04V180.181H128.16V181.301C128.384 180.881 128.697 180.564 129.098 180.349C129.5 180.125 129.957 180.013 130.47 180.013ZM137.769 180.013C138.637 180.013 139.281 180.237 139.701 180.685C140.131 181.124 140.345 181.796 140.345 182.701V186.999H139.239V185.837C139.062 186.239 138.791 186.551 138.427 186.775C138.063 186.99 137.643 187.097 137.167 187.097C136.729 187.097 136.323 187.009 135.949 186.831C135.585 186.654 135.296 186.407 135.081 186.089C134.867 185.772 134.759 185.422 134.759 185.039C134.759 184.526 134.89 184.129 135.151 183.849C135.413 183.56 135.842 183.355 136.439 183.233C137.037 183.103 137.867 183.037 138.931 183.037H139.239V182.575C139.239 182.006 139.123 181.595 138.889 181.343C138.656 181.082 138.278 180.951 137.755 180.951C136.971 180.951 136.192 181.194 135.417 181.679L135.039 180.853C135.394 180.601 135.819 180.401 136.313 180.251C136.817 180.093 137.303 180.013 137.769 180.013ZM137.321 186.201C137.881 186.201 138.339 186.015 138.693 185.641C139.057 185.259 139.239 184.769 139.239 184.171V183.765H138.987C138.166 183.765 137.541 183.803 137.111 183.877C136.682 183.943 136.374 184.059 136.187 184.227C136.01 184.386 135.921 184.624 135.921 184.941C135.921 185.305 136.052 185.609 136.313 185.851C136.584 186.085 136.92 186.201 137.321 186.201ZM145.851 180.013C147.484 180.013 148.301 180.914 148.301 182.715V186.999H147.167V182.785C147.167 182.151 147.041 181.689 146.789 181.399C146.546 181.11 146.154 180.965 145.613 180.965C144.988 180.965 144.488 181.157 144.115 181.539C143.742 181.922 143.555 182.44 143.555 183.093V186.999H142.421V177.129H143.555V181.273C143.779 180.863 144.087 180.55 144.479 180.335C144.88 180.121 145.338 180.013 145.851 180.013ZM157.292 187.111C155.752 187.111 154.52 186.696 153.596 185.865L154.044 184.983C154.529 185.394 155.024 185.688 155.528 185.865C156.041 186.043 156.634 186.131 157.306 186.131C158.099 186.131 158.71 185.977 159.14 185.669C159.569 185.361 159.784 184.927 159.784 184.367C159.784 184.041 159.681 183.775 159.476 183.569C159.27 183.364 159 183.201 158.664 183.079C158.328 182.958 157.875 182.832 157.306 182.701C156.54 182.524 155.91 182.337 155.416 182.141C154.93 181.945 154.534 181.665 154.226 181.301C153.927 180.937 153.778 180.461 153.778 179.873C153.778 179.313 153.922 178.819 154.212 178.389C154.51 177.951 154.93 177.615 155.472 177.381C156.022 177.139 156.657 177.017 157.376 177.017C158.057 177.017 158.692 177.125 159.28 177.339C159.877 177.554 160.381 177.862 160.792 178.263L160.358 179.145C159.891 178.744 159.415 178.455 158.93 178.277C158.454 178.091 157.936 177.997 157.376 177.997C156.61 177.997 156.008 178.161 155.57 178.487C155.14 178.805 154.926 179.253 154.926 179.831C154.926 180.326 155.117 180.699 155.5 180.951C155.882 181.203 156.461 181.418 157.236 181.595C158.085 181.801 158.752 181.992 159.238 182.169C159.723 182.337 160.124 182.594 160.442 182.939C160.768 183.285 160.932 183.747 160.932 184.325C160.932 184.885 160.782 185.375 160.484 185.795C160.194 186.215 159.774 186.542 159.224 186.775C158.673 186.999 158.029 187.111 157.292 187.111ZM166.058 180.013C167.691 180.013 168.508 180.914 168.508 182.715V186.999H167.374V182.785C167.374 182.151 167.248 181.689 166.996 181.399C166.753 181.11 166.361 180.965 165.82 180.965C165.195 180.965 164.695 181.157 164.322 181.539C163.949 181.922 163.762 182.44 163.762 183.093V186.999H162.628V177.129H163.762V181.273C163.986 180.863 164.294 180.55 164.686 180.335C165.087 180.121 165.545 180.013 166.058 180.013ZM176.297 183.765H171.313C171.35 184.559 171.565 185.161 171.957 185.571C172.349 185.973 172.904 186.173 173.623 186.173C174.416 186.173 175.144 185.903 175.807 185.361L176.185 186.187C175.886 186.467 175.504 186.691 175.037 186.859C174.57 187.018 174.094 187.097 173.609 187.097C172.545 187.097 171.705 186.785 171.089 186.159C170.482 185.534 170.179 184.671 170.179 183.569C170.179 182.869 170.314 182.253 170.585 181.721C170.856 181.18 171.234 180.76 171.719 180.461C172.214 180.163 172.774 180.013 173.399 180.013C174.304 180.013 175.014 180.312 175.527 180.909C176.04 181.497 176.297 182.309 176.297 183.345V183.765ZM173.413 180.895C172.816 180.895 172.335 181.082 171.971 181.455C171.616 181.829 171.406 182.356 171.341 183.037H175.303C175.284 182.347 175.112 181.819 174.785 181.455C174.458 181.082 174.001 180.895 173.413 180.895ZM183.68 183.765H178.696C178.733 184.559 178.948 185.161 179.34 185.571C179.732 185.973 180.287 186.173 181.006 186.173C181.799 186.173 182.527 185.903 183.19 185.361L183.568 186.187C183.269 186.467 182.887 186.691 182.42 186.859C181.953 187.018 181.477 187.097 180.992 187.097C179.928 187.097 179.088 186.785 178.472 186.159C177.865 185.534 177.562 184.671 177.562 183.569C177.562 182.869 177.697 182.253 177.968 181.721C178.239 181.18 178.617 180.76 179.102 180.461C179.597 180.163 180.157 180.013 180.782 180.013C181.687 180.013 182.397 180.312 182.91 180.909C183.423 181.497 183.68 182.309 183.68 183.345V183.765ZM180.796 180.895C180.199 180.895 179.718 181.082 179.354 181.455C178.999 181.829 178.789 182.356 178.724 183.037H182.686C182.667 182.347 182.495 181.819 182.168 181.455C181.841 181.082 181.384 180.895 180.796 180.895ZM188.781 180.013C190.414 180.013 191.231 180.914 191.231 182.715V186.999H190.097V182.785C190.097 182.151 189.971 181.689 189.719 181.399C189.476 181.11 189.084 180.965 188.543 180.965C187.917 180.965 187.418 181.157 187.045 181.539C186.671 181.922 186.485 182.44 186.485 183.093V186.999H185.351V180.181H186.471V181.301C186.695 180.881 187.007 180.564 187.409 180.349C187.81 180.125 188.267 180.013 188.781 180.013Z" fill="#58677C"/>
<circle opacity="0.6" cx="75" cy="181.999" r="15" fill="#D6DBEB"/>
<path d="M75 183.764C78.2761 183.764 80.5408 185.36 81.8184 187.793C82.615 189.31 83.0134 190.068 82.4299 191.034C81.8463 191.999 80.7655 191.999 78.6039 191.999H71.3961C69.2345 191.999 68.1537 191.999 67.5702 191.034C66.9866 190.068 67.385 189.31 68.1816 187.793C69.4592 185.36 71.7239 183.764 75 183.764Z" fill="#B4BED7"/>
<ellipse cx="74.9999" cy="177.293" rx="5.53846" ry="5.29412" fill="#B4BED7"/>
<path d="M101.218 227.129H105.124C106.16 227.129 106.963 227.381 107.532 227.885C108.111 228.389 108.4 229.103 108.4 230.027C108.4 230.951 108.111 231.67 107.532 232.183C106.953 232.697 106.151 232.953 105.124 232.953H102.366V236.999H101.218V227.129ZM105.012 232.001C106.515 232.001 107.266 231.343 107.266 230.027C107.266 228.73 106.515 228.081 105.012 228.081H102.366V232.001H105.012ZM112.695 230.013C113.563 230.013 114.207 230.237 114.627 230.685C115.056 231.124 115.271 231.796 115.271 232.701V236.999H114.165V235.837C113.988 236.239 113.717 236.551 113.353 236.775C112.989 236.99 112.569 237.097 112.093 237.097C111.654 237.097 111.248 237.009 110.875 236.831C110.511 236.654 110.222 236.407 110.007 236.089C109.792 235.772 109.685 235.422 109.685 235.039C109.685 234.526 109.816 234.129 110.077 233.849C110.338 233.56 110.768 233.355 111.365 233.233C111.962 233.103 112.793 233.037 113.857 233.037H114.165V232.575C114.165 232.006 114.048 231.595 113.815 231.343C113.582 231.082 113.204 230.951 112.681 230.951C111.897 230.951 111.118 231.194 110.343 231.679L109.965 230.853C110.32 230.601 110.744 230.401 111.239 230.251C111.743 230.093 112.228 230.013 112.695 230.013ZM112.247 236.201C112.807 236.201 113.264 236.015 113.619 235.641C113.983 235.259 114.165 234.769 114.165 234.171V233.765H113.913C113.092 233.765 112.466 233.803 112.037 233.877C111.608 233.943 111.3 234.059 111.113 234.227C110.936 234.386 110.847 234.624 110.847 234.941C110.847 235.305 110.978 235.609 111.239 235.851C111.51 236.085 111.846 236.201 112.247 236.201ZM123.087 230.181V236.999H121.981V235.837C121.766 236.248 121.463 236.561 121.071 236.775C120.688 236.99 120.254 237.097 119.769 237.097C118.957 237.097 118.346 236.873 117.935 236.425C117.524 235.968 117.319 235.296 117.319 234.409V230.181H118.453V234.381C118.453 234.988 118.574 235.436 118.817 235.725C119.06 236.005 119.442 236.145 119.965 236.145C120.562 236.145 121.043 235.954 121.407 235.571C121.771 235.179 121.953 234.666 121.953 234.031V230.181H123.087ZM125.195 227.129H126.329V236.999H125.195V227.129ZM135.362 237.111C133.822 237.111 132.59 236.696 131.666 235.865L132.114 234.983C132.599 235.394 133.094 235.688 133.598 235.865C134.111 236.043 134.704 236.131 135.376 236.131C136.169 236.131 136.78 235.977 137.21 235.669C137.639 235.361 137.854 234.927 137.854 234.367C137.854 234.041 137.751 233.775 137.546 233.569C137.34 233.364 137.07 233.201 136.734 233.079C136.398 232.958 135.945 232.832 135.376 232.701C134.61 232.524 133.98 232.337 133.486 232.141C133 231.945 132.604 231.665 132.296 231.301C131.997 230.937 131.848 230.461 131.848 229.873C131.848 229.313 131.992 228.819 132.282 228.389C132.58 227.951 133 227.615 133.542 227.381C134.092 227.139 134.727 227.017 135.446 227.017C136.127 227.017 136.762 227.125 137.35 227.339C137.947 227.554 138.451 227.862 138.862 228.263L138.428 229.145C137.961 228.744 137.485 228.455 137 228.277C136.524 228.091 136.006 227.997 135.446 227.997C134.68 227.997 134.078 228.161 133.64 228.487C133.21 228.805 132.996 229.253 132.996 229.831C132.996 230.326 133.187 230.699 133.57 230.951C133.952 231.203 134.531 231.418 135.306 231.595C136.155 231.801 136.822 231.992 137.308 232.169C137.793 232.337 138.194 232.594 138.512 232.939C138.838 233.285 139.002 233.747 139.002 234.325C139.002 234.885 138.852 235.375 138.554 235.795C138.264 236.215 137.844 236.542 137.294 236.775C136.743 236.999 136.099 237.111 135.362 237.111ZM148.286 230.013C149.798 230.013 150.554 230.914 150.554 232.715V236.999H149.42V232.771C149.42 232.146 149.308 231.689 149.084 231.399C148.87 231.11 148.52 230.965 148.034 230.965C147.465 230.965 147.017 231.157 146.69 231.539C146.364 231.922 146.2 232.445 146.2 233.107V236.999H145.066V232.771C145.066 232.137 144.954 231.679 144.73 231.399C144.506 231.11 144.152 230.965 143.666 230.965C143.097 230.965 142.649 231.157 142.322 231.539C141.996 231.922 141.832 232.445 141.832 233.107V236.999H140.698V230.181H141.818V231.259C142.024 230.858 142.308 230.55 142.672 230.335C143.036 230.121 143.456 230.013 143.932 230.013C144.987 230.013 145.682 230.461 146.018 231.357C146.214 230.937 146.513 230.611 146.914 230.377C147.316 230.135 147.773 230.013 148.286 230.013ZM152.62 230.181H153.754V236.999H152.62V230.181ZM153.88 227.227V228.501H152.508V227.227H153.88ZM158.87 236.187C159.076 236.187 159.281 236.173 159.486 236.145L159.43 237.041C159.216 237.079 158.982 237.097 158.73 237.097C157.909 237.097 157.288 236.883 156.868 236.453C156.458 236.024 156.252 235.427 156.252 234.661V231.077H154.922V230.181H156.252V228.109H157.386V230.181H159.318V231.077H157.386V234.577C157.386 235.651 157.881 236.187 158.87 236.187ZM164.062 230.013C165.695 230.013 166.512 230.914 166.512 232.715V236.999H165.378V232.785C165.378 232.151 165.252 231.689 165 231.399C164.757 231.11 164.365 230.965 163.824 230.965C163.199 230.965 162.699 231.157 162.326 231.539C161.953 231.922 161.766 232.44 161.766 233.093V236.999H160.632V227.129H161.766V231.273C161.99 230.863 162.298 230.55 162.69 230.335C163.091 230.121 163.549 230.013 164.062 230.013Z" fill="#58677C"/>
<circle opacity="0.6" cx="75" cy="231.999" r="15" fill="#D6DBEB"/>
<path d="M75 233.764C78.2761 233.764 80.5408 235.36 81.8184 237.793C82.615 239.31 83.0134 240.068 82.4299 241.034C81.8463 241.999 80.7655 241.999 78.6039 241.999H71.3961C69.2345 241.999 68.1537 241.999 67.5702 241.034C66.9866 240.068 67.385 239.31 68.1816 237.793C69.4592 235.36 71.7239 233.764 75 233.764Z" fill="#B4BED7"/>
<ellipse cx="74.9999" cy="227.293" rx="5.53846" ry="5.29412" fill="#B4BED7"/>
<path d="M101.218 277.129H104.536C106.113 277.129 107.331 277.559 108.19 278.417C109.058 279.267 109.492 280.48 109.492 282.057C109.492 283.635 109.058 284.853 108.19 285.711C107.331 286.57 106.113 286.999 104.536 286.999H101.218V277.129ZM104.466 286.019C107.023 286.019 108.302 284.699 108.302 282.057C108.302 279.425 107.023 278.109 104.466 278.109H102.366V286.019H104.466ZM121.788 280.181L119.254 286.999H118.162L116.244 281.721L114.312 286.999H113.234L110.7 280.181H111.876L113.808 285.655L115.782 280.181H116.762L118.708 285.655L120.654 280.181H121.788ZM125.834 280.013C126.702 280.013 127.346 280.237 127.766 280.685C128.195 281.124 128.41 281.796 128.41 282.701V286.999H127.304V285.837C127.126 286.239 126.856 286.551 126.492 286.775C126.128 286.99 125.708 287.097 125.232 287.097C124.793 287.097 124.387 287.009 124.014 286.831C123.65 286.654 123.36 286.407 123.146 286.089C122.931 285.772 122.824 285.422 122.824 285.039C122.824 284.526 122.954 284.129 123.216 283.849C123.477 283.56 123.906 283.355 124.504 283.233C125.101 283.103 125.932 283.037 126.996 283.037H127.304V282.575C127.304 282.006 127.187 281.595 126.954 281.343C126.72 281.082 126.342 280.951 125.82 280.951C125.036 280.951 124.256 281.194 123.482 281.679L123.104 280.853C123.458 280.601 123.883 280.401 124.378 280.251C124.882 280.093 125.367 280.013 125.834 280.013ZM125.386 286.201C125.946 286.201 126.403 286.015 126.758 285.641C127.122 285.259 127.304 284.769 127.304 284.171V283.765H127.052C126.23 283.765 125.605 283.803 125.176 283.877C124.746 283.943 124.438 284.059 124.252 284.227C124.074 284.386 123.986 284.624 123.986 284.941C123.986 285.305 124.116 285.609 124.378 285.851C124.648 286.085 124.984 286.201 125.386 286.201ZM136.506 280.195L132.474 289.519H131.312L132.46 286.915L129.576 280.195H130.78L133.062 285.767L135.372 280.195H136.506ZM141.107 280.013C142.74 280.013 143.557 280.914 143.557 282.715V286.999H142.423V282.785C142.423 282.151 142.297 281.689 142.045 281.399C141.802 281.11 141.41 280.965 140.869 280.965C140.244 280.965 139.744 281.157 139.371 281.539C138.998 281.922 138.811 282.44 138.811 283.093V286.999H137.677V280.181H138.797V281.301C139.021 280.881 139.334 280.564 139.735 280.349C140.136 280.125 140.594 280.013 141.107 280.013ZM151.346 283.765H146.362C146.399 284.559 146.614 285.161 147.006 285.571C147.398 285.973 147.953 286.173 148.672 286.173C149.465 286.173 150.193 285.903 150.856 285.361L151.234 286.187C150.935 286.467 150.553 286.691 150.086 286.859C149.619 287.018 149.143 287.097 148.658 287.097C147.594 287.097 146.754 286.785 146.138 286.159C145.531 285.534 145.228 284.671 145.228 283.569C145.228 282.869 145.363 282.253 145.634 281.721C145.905 281.18 146.283 280.76 146.768 280.461C147.263 280.163 147.823 280.013 148.448 280.013C149.353 280.013 150.063 280.312 150.576 280.909C151.089 281.497 151.346 282.309 151.346 283.345V283.765ZM148.462 280.895C147.865 280.895 147.384 281.082 147.02 281.455C146.665 281.829 146.455 282.356 146.39 283.037H150.352C150.333 282.347 150.161 281.819 149.834 281.455C149.507 281.082 149.05 280.895 148.462 280.895ZM161.008 287.111C160.075 287.111 159.263 286.911 158.572 286.509C157.882 286.099 157.35 285.515 156.976 284.759C156.612 283.994 156.43 283.093 156.43 282.057C156.43 281.021 156.612 280.125 156.976 279.369C157.35 278.613 157.882 278.035 158.572 277.633C159.263 277.223 160.075 277.017 161.008 277.017C161.69 277.017 162.315 277.125 162.884 277.339C163.454 277.545 163.948 277.853 164.368 278.263L163.934 279.145C163.458 278.744 162.992 278.455 162.534 278.277C162.077 278.1 161.573 278.011 161.022 278.011C159.94 278.011 159.1 278.366 158.502 279.075C157.914 279.775 157.62 280.769 157.62 282.057C157.62 283.355 157.914 284.358 158.502 285.067C159.1 285.767 159.94 286.117 161.022 286.117C161.573 286.117 162.077 286.029 162.534 285.851C162.992 285.674 163.458 285.385 163.934 284.983L164.368 285.865C163.948 286.276 163.454 286.589 162.884 286.803C162.315 287.009 161.69 287.111 161.008 287.111ZM168.792 287.097C168.148 287.097 167.579 286.953 167.084 286.663C166.599 286.374 166.221 285.963 165.95 285.431C165.689 284.89 165.558 284.265 165.558 283.555C165.558 282.846 165.689 282.225 165.95 281.693C166.221 281.152 166.599 280.737 167.084 280.447C167.579 280.158 168.148 280.013 168.792 280.013C169.436 280.013 170.005 280.158 170.5 280.447C170.995 280.737 171.373 281.152 171.634 281.693C171.905 282.225 172.04 282.846 172.04 283.555C172.04 284.265 171.905 284.89 171.634 285.431C171.373 285.963 170.995 286.374 170.5 286.663C170.005 286.953 169.436 287.097 168.792 287.097ZM168.792 286.159C169.464 286.159 169.977 285.94 170.332 285.501C170.696 285.053 170.878 284.405 170.878 283.555C170.878 282.725 170.696 282.085 170.332 281.637C169.968 281.18 169.455 280.951 168.792 280.951C168.129 280.951 167.616 281.18 167.252 281.637C166.888 282.085 166.706 282.725 166.706 283.555C166.706 284.395 166.883 285.039 167.238 285.487C167.602 285.935 168.12 286.159 168.792 286.159ZM179.668 280.195L176.728 286.999H175.664L172.738 280.195H173.942L176.224 285.767L178.534 280.195H179.668ZM186.469 283.765H181.485C181.522 284.559 181.737 285.161 182.129 285.571C182.521 285.973 183.076 286.173 183.795 286.173C184.588 286.173 185.316 285.903 185.979 285.361L186.357 286.187C186.058 286.467 185.676 286.691 185.209 286.859C184.742 287.018 184.266 287.097 183.781 287.097C182.717 287.097 181.877 286.785 181.261 286.159C180.654 285.534 180.351 284.671 180.351 283.569C180.351 282.869 180.486 282.253 180.757 281.721C181.028 281.18 181.406 280.76 181.891 280.461C182.386 280.163 182.946 280.013 183.571 280.013C184.476 280.013 185.186 280.312 185.699 280.909C186.212 281.497 186.469 282.309 186.469 283.345V283.765ZM183.585 280.895C182.988 280.895 182.507 281.082 182.143 281.455C181.788 281.829 181.578 282.356 181.513 283.037H185.475C185.456 282.347 185.284 281.819 184.957 281.455C184.63 281.082 184.173 280.895 183.585 280.895ZM188.14 277.129H189.274V286.999H188.14V277.129ZM191.394 277.129H192.528V286.999H191.394V277.129Z" fill="#58677C"/>
<circle opacity="0.6" cx="75" cy="281.999" r="15" fill="#D6DBEB"/>
<path d="M75 283.764C78.2761 283.764 80.5408 285.36 81.8184 287.793C82.615 289.31 83.0134 290.068 82.4299 291.034C81.8463 291.999 80.7655 291.999 78.6039 291.999H71.3961C69.2345 291.999 68.1537 291.999 67.5702 291.034C66.9866 290.068 67.385 289.31 68.1816 287.793C69.4592 285.36 71.7239 283.764 75 283.764Z" fill="#B4BED7"/>
<ellipse cx="74.9999" cy="277.293" rx="5.53846" ry="5.29412" fill="#B4BED7"/>
<path d="M110.542 327.129V336.999H109.492L109.506 329.355L106.3 335.431H105.488L102.268 329.411L102.282 336.999H101.218V327.129H102.17L105.908 334.283L109.604 327.129H110.542ZM118.841 330.195L114.809 339.519H113.647L114.795 336.915L111.911 330.195H113.115L115.397 335.767L117.707 330.195H118.841ZM123.877 330.993L123.135 331.063C122.435 331.129 121.926 331.348 121.609 331.721C121.301 332.095 121.147 332.557 121.147 333.107V336.999H120.013V330.181H121.119V331.371C121.502 330.578 122.253 330.135 123.373 330.041L123.779 330.013L123.877 330.993ZM128.491 336.187C128.697 336.187 128.902 336.173 129.107 336.145L129.051 337.041C128.837 337.079 128.603 337.097 128.351 337.097C127.53 337.097 126.909 336.883 126.489 336.453C126.079 336.024 125.873 335.427 125.873 334.661V331.077H124.543V330.181H125.873V328.109H127.007V330.181H128.939V331.077H127.007V334.577C127.007 335.651 127.502 336.187 128.491 336.187ZM130.253 327.129H131.387V336.999H130.253V327.129ZM139.219 333.765H134.235C134.272 334.559 134.487 335.161 134.879 335.571C135.271 335.973 135.826 336.173 136.545 336.173C137.338 336.173 138.066 335.903 138.729 335.361L139.107 336.187C138.808 336.467 138.426 336.691 137.959 336.859C137.492 337.018 137.016 337.097 136.531 337.097C135.467 337.097 134.627 336.785 134.011 336.159C133.404 335.534 133.101 334.671 133.101 333.569C133.101 332.869 133.236 332.253 133.507 331.721C133.778 331.18 134.156 330.76 134.641 330.461C135.136 330.163 135.696 330.013 136.321 330.013C137.226 330.013 137.936 330.312 138.449 330.909C138.962 331.497 139.219 332.309 139.219 333.345V333.765ZM136.335 330.895C135.738 330.895 135.257 331.082 134.893 331.455C134.538 331.829 134.328 332.356 134.263 333.037H138.225C138.206 332.347 138.034 331.819 137.707 331.455C137.38 331.082 136.923 330.895 136.335 330.895ZM152.437 336.999H151.177L149.497 333.835C149.292 333.453 149.049 333.191 148.769 333.051C148.499 332.902 148.125 332.827 147.649 332.827H145.801V336.999H144.667V327.129H148.727C149.801 327.129 150.617 327.367 151.177 327.843C151.747 328.319 152.031 329.019 152.031 329.943C152.031 330.709 151.812 331.329 151.373 331.805C150.944 332.272 150.328 332.566 149.525 332.687C149.777 332.762 149.997 332.888 150.183 333.065C150.379 333.243 150.557 333.481 150.715 333.779L152.437 336.999ZM148.629 331.875C149.395 331.875 149.964 331.717 150.337 331.399C150.72 331.082 150.911 330.601 150.911 329.957C150.911 329.323 150.725 328.851 150.351 328.543C149.978 328.235 149.404 328.081 148.629 328.081H145.801V331.875H148.629ZM159.837 330.181V336.999H158.731V335.837C158.516 336.248 158.213 336.561 157.821 336.775C157.438 336.99 157.004 337.097 156.519 337.097C155.707 337.097 155.096 336.873 154.685 336.425C154.274 335.968 154.069 335.296 154.069 334.409V330.181H155.203V334.381C155.203 334.988 155.324 335.436 155.567 335.725C155.81 336.005 156.192 336.145 156.715 336.145C157.312 336.145 157.793 335.954 158.157 335.571C158.521 335.179 158.703 334.666 158.703 334.031V330.181H159.837ZM164.255 337.097C163.107 337.097 162.197 336.803 161.525 336.215L161.903 335.375C162.267 335.665 162.635 335.875 163.009 336.005C163.391 336.127 163.821 336.187 164.297 336.187C164.801 336.187 165.183 336.103 165.445 335.935C165.715 335.758 165.851 335.506 165.851 335.179C165.851 334.909 165.762 334.694 165.585 334.535C165.407 334.377 165.113 334.251 164.703 334.157L163.555 333.891C162.976 333.761 162.533 333.537 162.225 333.219C161.917 332.902 161.763 332.51 161.763 332.043C161.763 331.437 162.001 330.947 162.477 330.573C162.953 330.2 163.587 330.013 164.381 330.013C164.857 330.013 165.309 330.093 165.739 330.251C166.168 330.401 166.527 330.62 166.817 330.909L166.439 331.735C165.813 331.203 165.127 330.937 164.381 330.937C163.905 330.937 163.531 331.031 163.261 331.217C162.999 331.395 162.869 331.647 162.869 331.973C162.869 332.244 162.948 332.463 163.107 332.631C163.275 332.79 163.541 332.911 163.905 332.995L165.067 333.275C165.701 333.425 166.173 333.653 166.481 333.961C166.789 334.26 166.943 334.652 166.943 335.137C166.943 335.735 166.7 336.211 166.215 336.565C165.739 336.92 165.085 337.097 164.255 337.097ZM172.101 330.013C173.734 330.013 174.551 330.914 174.551 332.715V336.999H173.417V332.785C173.417 332.151 173.291 331.689 173.039 331.399C172.796 331.11 172.404 330.965 171.863 330.965C171.238 330.965 170.738 331.157 170.365 331.539C169.992 331.922 169.805 332.44 169.805 333.093V336.999H168.671V327.129H169.805V331.273C170.029 330.863 170.337 330.55 170.729 330.335C171.13 330.121 171.588 330.013 172.101 330.013Z" fill="#58677C"/>
<circle opacity="0.6" cx="75" cy="331.999" r="15" fill="#D6DBEB"/>
<path d="M75 333.764C78.2761 333.764 80.5408 335.36 81.8184 337.793C82.615 339.31 83.0134 340.068 82.4299 341.034C81.8463 341.999 80.7655 341.999 78.6039 341.999H71.3961C69.2345 341.999 68.1537 341.999 67.5702 341.034C66.9866 340.068 67.385 339.31 68.1816 337.793C69.4592 335.36 71.7239 333.764 75 333.764Z" fill="#B4BED7"/>
<ellipse cx="74.9999" cy="327.293" rx="5.53846" ry="5.29412" fill="#B4BED7"/>
<path d="M286.992 139.664H290.402V140.999H285.337V130.912H286.992V139.664ZM291.235 136.964C291.235 136.161 291.399 135.45 291.728 134.831C292.067 134.212 292.521 133.733 293.092 133.394C293.673 133.046 294.312 132.871 295.008 132.871C295.637 132.871 296.184 132.997 296.648 133.249C297.122 133.491 297.5 133.795 297.78 134.163V133.002H299.45V140.999H297.78V139.809C297.5 140.186 297.118 140.501 296.634 140.753C296.15 141.004 295.598 141.13 294.979 141.13C294.292 141.13 293.663 140.956 293.092 140.607C292.521 140.249 292.067 139.756 291.728 139.127C291.399 138.488 291.235 137.767 291.235 136.964ZM297.78 136.993C297.78 136.442 297.664 135.963 297.432 135.557C297.21 135.15 296.914 134.84 296.547 134.628C296.179 134.415 295.782 134.308 295.357 134.308C294.931 134.308 294.534 134.415 294.166 134.628C293.799 134.831 293.499 135.136 293.267 135.542C293.044 135.939 292.933 136.413 292.933 136.964C292.933 137.516 293.044 138 293.267 138.416C293.499 138.832 293.799 139.151 294.166 139.374C294.544 139.587 294.94 139.693 295.357 139.693C295.782 139.693 296.179 139.587 296.547 139.374C296.914 139.161 297.21 138.851 297.432 138.445C297.664 138.029 297.78 137.545 297.78 136.993ZM304.526 141.13C303.897 141.13 303.331 141.019 302.827 140.796C302.334 140.564 301.942 140.254 301.652 139.867C301.362 139.47 301.207 139.03 301.187 138.546H302.9C302.929 138.885 303.089 139.17 303.379 139.403C303.679 139.625 304.051 139.737 304.497 139.737C304.961 139.737 305.319 139.649 305.571 139.475C305.832 139.291 305.962 139.059 305.962 138.779C305.962 138.479 305.817 138.256 305.527 138.111C305.246 137.966 304.797 137.806 304.177 137.632C303.577 137.468 303.089 137.308 302.711 137.153C302.334 136.998 302.005 136.761 301.724 136.442C301.453 136.123 301.318 135.702 301.318 135.179C301.318 134.753 301.444 134.366 301.695 134.018C301.947 133.66 302.305 133.379 302.769 133.176C303.244 132.973 303.785 132.871 304.395 132.871C305.305 132.871 306.035 133.104 306.587 133.568C307.148 134.023 307.448 134.647 307.486 135.44H305.832C305.803 135.082 305.658 134.797 305.396 134.584C305.135 134.371 304.782 134.265 304.337 134.265C303.901 134.265 303.568 134.347 303.335 134.511C303.103 134.676 302.987 134.894 302.987 135.165C302.987 135.377 303.065 135.557 303.219 135.702C303.374 135.847 303.563 135.963 303.785 136.05C304.008 136.127 304.337 136.229 304.772 136.355C305.353 136.51 305.827 136.669 306.195 136.834C306.572 136.989 306.896 137.221 307.167 137.53C307.438 137.84 307.578 138.251 307.588 138.764C307.588 139.219 307.462 139.625 307.211 139.983C306.959 140.341 306.601 140.622 306.137 140.825C305.682 141.028 305.145 141.13 304.526 141.13ZM311.306 134.352V138.779C311.306 139.079 311.374 139.296 311.509 139.432C311.655 139.558 311.896 139.62 312.235 139.62H313.251V140.999H311.945C311.2 140.999 310.629 140.825 310.232 140.477C309.835 140.128 309.637 139.562 309.637 138.779V134.352H308.694V133.002H309.637V131.014H311.306V133.002H313.251V134.352H311.306ZM325.789 133.002V140.999H324.134V140.056C323.873 140.385 323.53 140.646 323.104 140.84C322.688 141.023 322.243 141.115 321.768 141.115C321.14 141.115 320.573 140.985 320.07 140.724C319.577 140.462 319.185 140.075 318.895 139.562C318.614 139.05 318.474 138.43 318.474 137.705V133.002H320.114V137.458C320.114 138.174 320.293 138.725 320.651 139.112C321.009 139.49 321.498 139.678 322.117 139.678C322.736 139.678 323.225 139.49 323.583 139.112C323.95 138.725 324.134 138.174 324.134 137.458V133.002H325.789ZM329.627 134.178C329.907 133.81 330.289 133.5 330.773 133.249C331.257 132.997 331.804 132.871 332.413 132.871C333.11 132.871 333.744 133.046 334.315 133.394C334.895 133.733 335.35 134.212 335.679 134.831C336.008 135.45 336.172 136.161 336.172 136.964C336.172 137.767 336.008 138.488 335.679 139.127C335.35 139.756 334.895 140.249 334.315 140.607C333.744 140.956 333.11 141.13 332.413 141.13C331.804 141.13 331.262 141.009 330.788 140.767C330.314 140.515 329.927 140.206 329.627 139.838V144.802H327.972V133.002H329.627V134.178ZM334.489 136.964C334.489 136.413 334.373 135.939 334.14 135.542C333.918 135.136 333.618 134.831 333.241 134.628C332.873 134.415 332.476 134.308 332.05 134.308C331.634 134.308 331.238 134.415 330.86 134.628C330.493 134.84 330.193 135.15 329.96 135.557C329.738 135.963 329.627 136.442 329.627 136.993C329.627 137.545 329.738 138.029 329.96 138.445C330.193 138.851 330.493 139.161 330.86 139.374C331.238 139.587 331.634 139.693 332.05 139.693C332.476 139.693 332.873 139.587 333.241 139.374C333.618 139.151 333.918 138.832 334.14 138.416C334.373 138 334.489 137.516 334.489 136.964ZM337.257 136.964C337.257 136.161 337.422 135.45 337.751 134.831C338.089 134.212 338.544 133.733 339.115 133.394C339.695 133.046 340.339 132.871 341.045 132.871C341.568 132.871 342.081 132.988 342.584 133.22C343.097 133.442 343.503 133.742 343.803 134.12V130.259H345.472V140.999H343.803V139.795C343.532 140.182 343.155 140.501 342.671 140.753C342.197 141.004 341.65 141.13 341.031 141.13C340.334 141.13 339.695 140.956 339.115 140.607C338.544 140.249 338.089 139.756 337.751 139.127C337.422 138.488 337.257 137.767 337.257 136.964ZM343.803 136.993C343.803 136.442 343.687 135.963 343.455 135.557C343.232 135.15 342.937 134.84 342.569 134.628C342.202 134.415 341.805 134.308 341.379 134.308C340.953 134.308 340.557 134.415 340.189 134.628C339.821 134.831 339.521 135.136 339.289 135.542C339.067 135.939 338.955 136.413 338.955 136.964C338.955 137.516 339.067 138 339.289 138.416C339.521 138.832 339.821 139.151 340.189 139.374C340.566 139.587 340.963 139.693 341.379 139.693C341.805 139.693 342.202 139.587 342.569 139.374C342.937 139.161 343.232 138.851 343.455 138.445C343.687 138.029 343.803 137.545 343.803 136.993ZM347.094 136.964C347.094 136.161 347.258 135.45 347.587 134.831C347.926 134.212 348.381 133.733 348.952 133.394C349.532 133.046 350.171 132.871 350.867 132.871C351.496 132.871 352.043 132.997 352.508 133.249C352.982 133.491 353.359 133.795 353.64 134.163V133.002H355.309V140.999H353.64V139.809C353.359 140.186 352.977 140.501 352.493 140.753C352.009 141.004 351.458 141.13 350.838 141.13C350.151 141.13 349.522 140.956 348.952 140.607C348.381 140.249 347.926 139.756 347.587 139.127C347.258 138.488 347.094 137.767 347.094 136.964ZM353.64 136.993C353.64 136.442 353.523 135.963 353.291 135.557C353.069 135.15 352.774 134.84 352.406 134.628C352.038 134.415 351.642 134.308 351.216 134.308C350.79 134.308 350.393 134.415 350.026 134.628C349.658 134.831 349.358 135.136 349.126 135.542C348.903 135.939 348.792 136.413 348.792 136.964C348.792 137.516 348.903 138 349.126 138.416C349.358 138.832 349.658 139.151 350.026 139.374C350.403 139.587 350.8 139.693 351.216 139.693C351.642 139.693 352.038 139.587 352.406 139.374C352.774 139.161 353.069 138.851 353.291 138.445C353.523 138.029 353.64 137.545 353.64 136.993ZM359.412 134.352V138.779C359.412 139.079 359.48 139.296 359.616 139.432C359.761 139.558 360.003 139.62 360.341 139.62H361.357V140.999H360.051C359.306 140.999 358.735 140.825 358.338 140.477C357.942 140.128 357.743 139.562 357.743 138.779V134.352H356.8V133.002H357.743V131.014H359.412V133.002H361.357V134.352H359.412ZM370.212 136.805C370.212 137.105 370.192 137.376 370.154 137.617H364.043C364.092 138.256 364.329 138.769 364.755 139.156C365.18 139.543 365.703 139.737 366.322 139.737C367.212 139.737 367.841 139.364 368.209 138.619H369.994C369.752 139.354 369.312 139.959 368.673 140.433C368.044 140.898 367.261 141.13 366.322 141.13C365.558 141.13 364.871 140.961 364.261 140.622C363.661 140.274 363.187 139.79 362.839 139.17C362.5 138.542 362.331 137.816 362.331 136.993C362.331 136.171 362.495 135.45 362.824 134.831C363.163 134.202 363.632 133.718 364.232 133.379C364.842 133.041 365.538 132.871 366.322 132.871C367.077 132.871 367.749 133.036 368.339 133.365C368.93 133.694 369.389 134.158 369.718 134.758C370.047 135.348 370.212 136.031 370.212 136.805ZM368.485 136.282C368.475 135.673 368.257 135.184 367.832 134.816C367.406 134.449 366.878 134.265 366.249 134.265C365.679 134.265 365.19 134.449 364.784 134.816C364.377 135.174 364.135 135.663 364.058 136.282H368.485Z" fill="#31374D"/>
<path d="M288.625 291.101C287.947 291.101 287.338 290.985 286.796 290.753C286.254 290.511 285.828 290.172 285.519 289.737C285.209 289.301 285.054 288.793 285.054 288.213H286.825C286.864 288.648 287.033 289.006 287.333 289.287C287.642 289.567 288.073 289.708 288.625 289.708C289.195 289.708 289.641 289.572 289.96 289.301C290.279 289.021 290.439 288.663 290.439 288.227C290.439 287.888 290.337 287.613 290.134 287.4C289.941 287.187 289.694 287.022 289.394 286.906C289.104 286.79 288.697 286.664 288.175 286.529C287.517 286.355 286.98 286.181 286.564 286.006C286.157 285.823 285.809 285.542 285.519 285.165C285.228 284.787 285.083 284.284 285.083 283.655C285.083 283.075 285.228 282.567 285.519 282.131C285.809 281.696 286.215 281.362 286.738 281.13C287.26 280.897 287.865 280.781 288.552 280.781C289.529 280.781 290.328 281.028 290.947 281.522C291.576 282.005 291.924 282.673 291.992 283.525H290.163C290.134 283.157 289.96 282.842 289.641 282.581C289.321 282.32 288.9 282.189 288.378 282.189C287.904 282.189 287.517 282.31 287.217 282.552C286.917 282.794 286.767 283.142 286.767 283.597C286.767 283.907 286.859 284.163 287.043 284.366C287.236 284.56 287.478 284.715 287.768 284.831C288.059 284.947 288.455 285.073 288.958 285.208C289.626 285.392 290.168 285.576 290.584 285.76C291.01 285.944 291.368 286.229 291.658 286.616C291.958 286.993 292.108 287.501 292.108 288.14C292.108 288.653 291.968 289.137 291.687 289.591C291.416 290.046 291.015 290.414 290.482 290.694C289.96 290.965 289.341 291.101 288.625 291.101ZM295.991 284.352V288.779C295.991 289.079 296.058 289.296 296.194 289.432C296.339 289.558 296.581 289.62 296.92 289.62H297.936V290.999H296.629C295.884 290.999 295.313 290.825 294.917 290.477C294.52 290.128 294.322 289.562 294.322 288.779V284.352H293.378V283.002H294.322V281.014H295.991V283.002H297.936V284.352H295.991ZM298.909 286.964C298.909 286.161 299.074 285.45 299.403 284.831C299.741 284.212 300.196 283.733 300.767 283.394C301.347 283.046 301.986 282.871 302.683 282.871C303.312 282.871 303.858 282.997 304.323 283.249C304.797 283.491 305.174 283.795 305.455 284.163V283.002H307.124V290.999H305.455V289.809C305.174 290.186 304.792 290.501 304.308 290.753C303.824 291.004 303.273 291.13 302.654 291.13C301.967 291.13 301.338 290.956 300.767 290.607C300.196 290.249 299.741 289.756 299.403 289.127C299.074 288.488 298.909 287.767 298.909 286.964ZM305.455 286.993C305.455 286.442 305.339 285.963 305.107 285.557C304.884 285.15 304.589 284.84 304.221 284.628C303.854 284.415 303.457 284.308 303.031 284.308C302.605 284.308 302.209 284.415 301.841 284.628C301.473 284.831 301.173 285.136 300.941 285.542C300.718 285.939 300.607 286.413 300.607 286.964C300.607 287.516 300.718 288 300.941 288.416C301.173 288.832 301.473 289.151 301.841 289.374C302.218 289.587 302.615 289.693 303.031 289.693C303.457 289.693 303.854 289.587 304.221 289.374C304.589 289.161 304.884 288.851 305.107 288.445C305.339 288.029 305.455 287.545 305.455 286.993ZM311.228 284.352V288.779C311.228 289.079 311.295 289.296 311.431 289.432C311.576 289.558 311.818 289.62 312.157 289.62H313.172V290.999H311.866C311.121 290.999 310.55 290.825 310.154 290.477C309.757 290.128 309.558 289.562 309.558 288.779V284.352H308.615V283.002H309.558V281.014H311.228V283.002H313.172V284.352H311.228ZM321.94 283.002V290.999H320.285V290.056C320.024 290.385 319.681 290.646 319.255 290.84C318.839 291.023 318.394 291.115 317.92 291.115C317.291 291.115 316.725 290.985 316.221 290.724C315.728 290.462 315.336 290.075 315.046 289.562C314.765 289.05 314.625 288.43 314.625 287.705V283.002H316.265V287.458C316.265 288.174 316.444 288.725 316.802 289.112C317.16 289.49 317.649 289.678 318.268 289.678C318.887 289.678 319.376 289.49 319.734 289.112C320.102 288.725 320.285 288.174 320.285 287.458V283.002H321.94ZM327.026 291.13C326.397 291.13 325.831 291.019 325.328 290.796C324.834 290.564 324.442 290.254 324.152 289.867C323.862 289.47 323.707 289.03 323.688 288.546H325.4C325.429 288.885 325.589 289.17 325.879 289.403C326.179 289.625 326.552 289.737 326.997 289.737C327.461 289.737 327.819 289.649 328.071 289.475C328.332 289.291 328.463 289.059 328.463 288.779C328.463 288.479 328.318 288.256 328.027 288.111C327.747 287.966 327.297 287.806 326.678 287.632C326.078 287.468 325.589 287.308 325.212 287.153C324.834 286.998 324.505 286.761 324.225 286.442C323.954 286.123 323.818 285.702 323.818 285.179C323.818 284.753 323.944 284.366 324.196 284.018C324.447 283.66 324.805 283.379 325.27 283.176C325.744 282.973 326.286 282.871 326.895 282.871C327.805 282.871 328.535 283.104 329.087 283.568C329.648 284.023 329.948 284.647 329.987 285.44H328.332C328.303 285.082 328.158 284.797 327.897 284.584C327.636 284.371 327.282 284.265 326.837 284.265C326.402 284.265 326.068 284.347 325.836 284.511C325.604 284.676 325.487 284.894 325.487 285.165C325.487 285.377 325.565 285.557 325.72 285.702C325.874 285.847 326.063 285.963 326.286 286.05C326.508 286.127 326.837 286.229 327.273 286.355C327.853 286.51 328.327 286.669 328.695 286.834C329.072 286.989 329.397 287.221 329.667 287.53C329.938 287.84 330.079 288.251 330.088 288.764C330.088 289.219 329.963 289.625 329.711 289.983C329.459 290.341 329.101 290.622 328.637 290.825C328.182 291.028 327.645 291.13 327.026 291.13Z" fill="#31374D"/>
<rect opacity="0.2" x="284" y="316.999" width="90" height="30" rx="15" fill="#FFC34E"/>
<path d="M303.148 327.129H307.236C308.281 327.129 309.093 327.386 309.672 327.899C310.251 328.413 310.54 329.141 310.54 330.083C310.54 331.017 310.251 331.745 309.672 332.267C309.093 332.79 308.281 333.051 307.236 333.051H304.59V336.999H303.148V327.129ZM307.082 331.889C308.463 331.889 309.154 331.287 309.154 330.083C309.154 328.889 308.463 328.291 307.082 328.291H304.59V331.889H307.082ZM317.732 333.821H312.902C313.005 335.268 313.724 335.991 315.058 335.991C315.842 335.991 316.552 335.735 317.186 335.221L317.62 336.215C317.303 336.486 316.911 336.701 316.444 336.859C315.978 337.018 315.502 337.097 315.016 337.097C313.924 337.097 313.061 336.785 312.426 336.159C311.801 335.534 311.488 334.671 311.488 333.569C311.488 332.869 311.624 332.249 311.894 331.707C312.174 331.166 312.562 330.746 313.056 330.447C313.56 330.149 314.13 329.999 314.764 329.999C315.688 329.999 316.412 330.298 316.934 330.895C317.466 331.493 317.732 332.319 317.732 333.373V333.821ZM314.792 331.035C314.251 331.035 313.817 331.208 313.49 331.553C313.173 331.889 312.982 332.375 312.916 333.009H316.514C316.486 332.375 316.323 331.889 316.024 331.553C315.735 331.208 315.324 331.035 314.792 331.035ZM322.973 329.999C324.606 329.999 325.423 330.919 325.423 332.757V336.999H324.009V332.827C324.009 332.249 323.892 331.824 323.659 331.553C323.435 331.283 323.08 331.147 322.595 331.147C322.025 331.147 321.568 331.325 321.223 331.679C320.877 332.034 320.705 332.51 320.705 333.107V336.999H319.291V330.167H320.677V331.259C320.901 330.849 321.213 330.536 321.615 330.321C322.016 330.107 322.469 329.999 322.973 329.999ZM333.657 327.129V336.999H332.257V335.823C332.052 336.234 331.753 336.551 331.361 336.775C330.969 336.99 330.516 337.097 330.003 337.097C329.415 337.097 328.888 336.948 328.421 336.649C327.964 336.351 327.604 335.931 327.343 335.389C327.091 334.848 326.965 334.227 326.965 333.527C326.965 332.818 327.091 332.197 327.343 331.665C327.604 331.133 327.964 330.723 328.421 330.433C328.878 330.144 329.406 329.999 330.003 329.999C330.516 329.999 330.964 330.111 331.347 330.335C331.739 330.55 332.038 330.858 332.243 331.259V327.129H333.657ZM330.339 335.977C330.955 335.977 331.426 335.767 331.753 335.347C332.089 334.927 332.257 334.33 332.257 333.555C332.257 332.781 332.089 332.183 331.753 331.763C331.426 331.343 330.955 331.133 330.339 331.133C329.723 331.133 329.242 331.343 328.897 331.763C328.561 332.174 328.393 332.762 328.393 333.527C328.393 334.293 328.566 334.895 328.911 335.333C329.256 335.763 329.732 335.977 330.339 335.977ZM335.628 330.167H337.042V336.999H335.628V330.167ZM337.154 327.115V328.585H335.53V327.115H337.154ZM342.701 329.999C344.334 329.999 345.151 330.919 345.151 332.757V336.999H343.737V332.827C343.737 332.249 343.62 331.824 343.387 331.553C343.163 331.283 342.808 331.147 342.323 331.147C341.754 331.147 341.296 331.325 340.951 331.679C340.606 332.034 340.433 332.51 340.433 333.107V336.999H339.019V330.167H340.405V331.259C340.629 330.849 340.942 330.536 341.343 330.321C341.744 330.107 342.197 329.999 342.701 329.999ZM353.441 330.167V336.453C353.441 337.499 353.161 338.287 352.601 338.819C352.051 339.351 351.234 339.617 350.151 339.617C349.563 339.617 349.003 339.538 348.471 339.379C347.949 339.23 347.482 339.011 347.071 338.721L347.505 337.699C347.953 337.989 348.383 338.194 348.793 338.315C349.213 338.446 349.661 338.511 350.137 338.511C351.416 338.511 352.055 337.863 352.055 336.565V335.487C351.859 335.898 351.561 336.22 351.159 336.453C350.758 336.677 350.291 336.789 349.759 336.789C349.162 336.789 348.63 336.649 348.163 336.369C347.697 336.089 347.333 335.693 347.071 335.179C346.819 334.666 346.693 334.073 346.693 333.401C346.693 332.729 346.824 332.137 347.085 331.623C347.347 331.11 347.706 330.713 348.163 330.433C348.63 330.144 349.162 329.999 349.759 329.999C350.282 329.999 350.739 330.111 351.131 330.335C351.533 330.559 351.836 330.877 352.041 331.287V330.167H353.441ZM350.095 335.669C350.702 335.669 351.178 335.469 351.523 335.067C351.869 334.666 352.041 334.111 352.041 333.401C352.041 332.701 351.869 332.151 351.523 331.749C351.187 331.339 350.711 331.133 350.095 331.133C349.479 331.133 348.994 331.334 348.639 331.735C348.294 332.137 348.121 332.692 348.121 333.401C348.121 334.111 348.299 334.666 348.653 335.067C349.008 335.469 349.489 335.669 350.095 335.669Z" fill="#FFC34E"/>
<path d="M334.542 171.129V180.999H333.492L333.506 173.355L330.3 179.431H329.488L326.268 173.411L326.282 180.999H325.218V171.129H326.17L329.908 178.283L333.604 171.129H334.542ZM342.841 174.195L338.809 183.519H337.647L338.795 180.915L335.911 174.195H337.115L339.397 179.767L341.707 174.195H342.841ZM347.877 174.993L347.135 175.063C346.435 175.129 345.926 175.348 345.609 175.721C345.301 176.095 345.147 176.557 345.147 177.107V180.999H344.013V174.181H345.119V175.371C345.502 174.578 346.253 174.135 347.373 174.041L347.779 174.013L347.877 174.993ZM352.491 180.187C352.697 180.187 352.902 180.173 353.107 180.145L353.051 181.041C352.837 181.079 352.603 181.097 352.351 181.097C351.53 181.097 350.909 180.883 350.489 180.453C350.079 180.024 349.873 179.427 349.873 178.661V175.077H348.543V174.181H349.873V172.109H351.007V174.181H352.939V175.077H351.007V178.577C351.007 179.651 351.502 180.187 352.491 180.187ZM354.253 171.129H355.387V180.999H354.253V171.129ZM363.219 177.765H358.235C358.272 178.559 358.487 179.161 358.879 179.571C359.271 179.973 359.826 180.173 360.545 180.173C361.338 180.173 362.066 179.903 362.729 179.361L363.107 180.187C362.808 180.467 362.426 180.691 361.959 180.859C361.492 181.018 361.016 181.097 360.531 181.097C359.467 181.097 358.627 180.785 358.011 180.159C357.404 179.534 357.101 178.671 357.101 177.569C357.101 176.869 357.236 176.253 357.507 175.721C357.778 175.18 358.156 174.76 358.641 174.461C359.136 174.163 359.696 174.013 360.321 174.013C361.226 174.013 361.936 174.312 362.449 174.909C362.962 175.497 363.219 176.309 363.219 177.345V177.765ZM360.335 174.895C359.738 174.895 359.257 175.082 358.893 175.455C358.538 175.829 358.328 176.356 358.263 177.037H362.225C362.206 176.347 362.034 175.819 361.707 175.455C361.38 175.082 360.923 174.895 360.335 174.895ZM376.437 180.999H375.177L373.497 177.835C373.292 177.453 373.049 177.191 372.769 177.051C372.499 176.902 372.125 176.827 371.649 176.827H369.801V180.999H368.667V171.129H372.727C373.801 171.129 374.617 171.367 375.177 171.843C375.747 172.319 376.031 173.019 376.031 173.943C376.031 174.709 375.812 175.329 375.373 175.805C374.944 176.272 374.328 176.566 373.525 176.687C373.777 176.762 373.997 176.888 374.183 177.065C374.379 177.243 374.557 177.481 374.715 177.779L376.437 180.999ZM372.629 175.875C373.395 175.875 373.964 175.717 374.337 175.399C374.72 175.082 374.911 174.601 374.911 173.957C374.911 173.323 374.725 172.851 374.351 172.543C373.978 172.235 373.404 172.081 372.629 172.081H369.801V175.875H372.629ZM383.837 174.181V180.999H382.731V179.837C382.516 180.248 382.213 180.561 381.821 180.775C381.438 180.99 381.004 181.097 380.519 181.097C379.707 181.097 379.096 180.873 378.685 180.425C378.274 179.968 378.069 179.296 378.069 178.409V174.181H379.203V178.381C379.203 178.988 379.324 179.436 379.567 179.725C379.81 180.005 380.192 180.145 380.715 180.145C381.312 180.145 381.793 179.954 382.157 179.571C382.521 179.179 382.703 178.666 382.703 178.031V174.181H383.837ZM388.255 181.097C387.107 181.097 386.197 180.803 385.525 180.215L385.903 179.375C386.267 179.665 386.635 179.875 387.009 180.005C387.391 180.127 387.821 180.187 388.297 180.187C388.801 180.187 389.183 180.103 389.445 179.935C389.715 179.758 389.851 179.506 389.851 179.179C389.851 178.909 389.762 178.694 389.585 178.535C389.407 178.377 389.113 178.251 388.703 178.157L387.555 177.891C386.976 177.761 386.533 177.537 386.225 177.219C385.917 176.902 385.763 176.51 385.763 176.043C385.763 175.437 386.001 174.947 386.477 174.573C386.953 174.2 387.587 174.013 388.381 174.013C388.857 174.013 389.309 174.093 389.739 174.251C390.168 174.401 390.527 174.62 390.817 174.909L390.439 175.735C389.813 175.203 389.127 174.937 388.381 174.937C387.905 174.937 387.531 175.031 387.261 175.217C386.999 175.395 386.869 175.647 386.869 175.973C386.869 176.244 386.948 176.463 387.107 176.631C387.275 176.79 387.541 176.911 387.905 176.995L389.067 177.275C389.701 177.425 390.173 177.653 390.481 177.961C390.789 178.26 390.943 178.652 390.943 179.137C390.943 179.735 390.7 180.211 390.215 180.565C389.739 180.92 389.085 181.097 388.255 181.097ZM396.101 174.013C397.734 174.013 398.551 174.914 398.551 176.715V180.999H397.417V176.785C397.417 176.151 397.291 175.689 397.039 175.399C396.796 175.11 396.404 174.965 395.863 174.965C395.238 174.965 394.738 175.157 394.365 175.539C393.992 175.922 393.805 176.44 393.805 177.093V180.999H392.671V171.129H393.805V175.273C394.029 174.863 394.337 174.55 394.729 174.335C395.13 174.121 395.588 174.013 396.101 174.013Z" fill="#58677C"/>
<path d="M329.35 195.459V195.999H324.9V195.539L327.41 192.739C327.763 192.333 328.02 191.973 328.18 191.659C328.34 191.346 328.42 191.033 328.42 190.719C328.42 190.299 328.297 189.976 328.05 189.749C327.81 189.523 327.467 189.409 327.02 189.409C326.313 189.409 325.637 189.693 324.99 190.259L324.73 189.769C325.01 189.496 325.357 189.279 325.77 189.119C326.19 188.953 326.607 188.869 327.02 188.869C327.647 188.869 328.14 189.033 328.5 189.359C328.86 189.679 329.04 190.123 329.04 190.689C329.04 191.096 328.947 191.489 328.76 191.869C328.573 192.249 328.267 192.676 327.84 193.149L325.73 195.459H329.35ZM337.446 188.949V195.999H336.836V195.069C336.689 195.396 336.472 195.646 336.186 195.819C335.899 195.986 335.559 196.069 335.166 196.069C334.739 196.069 334.362 195.966 334.036 195.759C333.709 195.546 333.456 195.249 333.276 194.869C333.096 194.483 333.006 194.036 333.006 193.529C333.006 193.029 333.096 192.593 333.276 192.219C333.456 191.839 333.709 191.546 334.036 191.339C334.362 191.133 334.739 191.029 335.166 191.029C335.559 191.029 335.899 191.116 336.186 191.289C336.472 191.456 336.689 191.703 336.836 192.029V188.949H337.446ZM335.246 195.529C335.752 195.529 336.142 195.359 336.416 195.019C336.696 194.673 336.836 194.183 336.836 193.549C336.836 192.916 336.699 192.426 336.426 192.079C336.152 191.733 335.762 191.559 335.256 191.559C334.742 191.559 334.346 191.733 334.066 192.079C333.786 192.419 333.646 192.903 333.646 193.529C333.646 194.163 333.786 194.656 334.066 195.009C334.346 195.356 334.739 195.529 335.246 195.529ZM340.968 191.029C341.555 191.029 341.991 191.183 342.278 191.489C342.571 191.796 342.718 192.259 342.718 192.879V195.999H342.118V195.129C341.978 195.429 341.775 195.663 341.508 195.829C341.241 195.989 340.935 196.069 340.588 196.069C340.275 196.069 339.988 196.006 339.728 195.879C339.468 195.753 339.261 195.576 339.108 195.349C338.961 195.123 338.888 194.873 338.888 194.599C338.888 194.239 338.981 193.959 339.168 193.759C339.355 193.559 339.665 193.416 340.098 193.329C340.531 193.243 341.135 193.199 341.908 193.199H342.118V192.829C342.118 192.389 342.028 192.069 341.848 191.869C341.668 191.663 341.385 191.559 340.998 191.559C340.705 191.559 340.421 191.603 340.148 191.689C339.881 191.769 339.605 191.903 339.318 192.089L339.088 191.619C339.335 191.439 339.628 191.296 339.968 191.189C340.308 191.083 340.641 191.029 340.968 191.029ZM340.638 195.539C341.071 195.539 341.425 195.393 341.698 195.099C341.978 194.806 342.118 194.433 342.118 193.979V193.649H341.928C341.288 193.649 340.798 193.676 340.458 193.729C340.118 193.783 339.878 193.876 339.738 194.009C339.598 194.136 339.528 194.323 339.528 194.569C339.528 194.849 339.635 195.083 339.848 195.269C340.061 195.449 340.325 195.539 340.638 195.539ZM348.442 191.149L345.582 197.799H344.962L345.752 195.999L343.672 191.149H344.322L346.072 195.379L347.822 191.149H348.442ZM350.882 196.069C350.115 196.069 349.489 195.853 349.002 195.419L349.232 194.949C349.492 195.163 349.752 195.316 350.012 195.409C350.272 195.496 350.572 195.539 350.912 195.539C351.305 195.539 351.605 195.469 351.812 195.329C352.025 195.189 352.132 194.993 352.132 194.739C352.132 194.526 352.062 194.356 351.922 194.229C351.782 194.096 351.559 193.996 351.252 193.929L350.432 193.739C350.039 193.646 349.729 193.486 349.502 193.259C349.282 193.026 349.172 192.753 349.172 192.439C349.172 192.019 349.335 191.679 349.662 191.419C349.989 191.159 350.425 191.029 350.972 191.029C351.312 191.029 351.629 191.086 351.922 191.199C352.222 191.306 352.469 191.463 352.662 191.669L352.432 192.139C352.205 191.939 351.972 191.793 351.732 191.699C351.499 191.606 351.245 191.559 350.972 191.559C350.605 191.559 350.319 191.633 350.112 191.779C349.905 191.926 349.802 192.129 349.802 192.389C349.802 192.603 349.865 192.776 349.992 192.909C350.125 193.043 350.329 193.143 350.602 193.209L351.432 193.409C352.312 193.609 352.752 194.043 352.752 194.709C352.752 195.123 352.582 195.453 352.242 195.699C351.909 195.946 351.455 196.069 350.882 196.069ZM358.517 191.029C359.104 191.029 359.54 191.183 359.827 191.489C360.12 191.796 360.267 192.259 360.267 192.879V195.999H359.667V195.129C359.527 195.429 359.324 195.663 359.057 195.829C358.79 195.989 358.484 196.069 358.137 196.069C357.824 196.069 357.537 196.006 357.277 195.879C357.017 195.753 356.81 195.576 356.657 195.349C356.51 195.123 356.437 194.873 356.437 194.599C356.437 194.239 356.53 193.959 356.717 193.759C356.904 193.559 357.214 193.416 357.647 193.329C358.08 193.243 358.684 193.199 359.457 193.199H359.667V192.829C359.667 192.389 359.577 192.069 359.397 191.869C359.217 191.663 358.934 191.559 358.547 191.559C358.254 191.559 357.97 191.603 357.697 191.689C357.43 191.769 357.154 191.903 356.867 192.089L356.637 191.619C356.884 191.439 357.177 191.296 357.517 191.189C357.857 191.083 358.19 191.029 358.517 191.029ZM358.187 195.539C358.62 195.539 358.974 195.393 359.247 195.099C359.527 194.806 359.667 194.433 359.667 193.979V193.649H359.477C358.837 193.649 358.347 193.676 358.007 193.729C357.667 193.783 357.427 193.876 357.287 194.009C357.147 194.136 357.077 194.323 357.077 194.569C357.077 194.849 357.184 195.083 357.397 195.269C357.61 195.449 357.874 195.539 358.187 195.539ZM366.031 191.149V195.719C366.031 196.426 365.854 196.959 365.501 197.319C365.154 197.686 364.637 197.869 363.951 197.869C363.137 197.869 362.437 197.646 361.851 197.199L362.091 196.719C362.417 196.946 362.717 197.103 362.991 197.189C363.271 197.283 363.594 197.329 363.961 197.329C364.447 197.329 364.814 197.199 365.061 196.939C365.307 196.679 365.431 196.293 365.431 195.779V194.829C365.291 195.156 365.074 195.409 364.781 195.589C364.494 195.763 364.144 195.849 363.731 195.849C363.304 195.849 362.924 195.749 362.591 195.549C362.264 195.349 362.007 195.066 361.821 194.699C361.641 194.333 361.551 193.913 361.551 193.439C361.551 192.966 361.641 192.546 361.821 192.179C362.007 191.813 362.264 191.529 362.591 191.329C362.924 191.129 363.304 191.029 363.731 191.029C364.137 191.029 364.484 191.116 364.771 191.289C365.057 191.456 365.274 191.703 365.421 192.029V191.149H366.031ZM363.811 195.309C364.317 195.309 364.711 195.143 364.991 194.809C365.277 194.476 365.421 194.019 365.421 193.439C365.421 192.859 365.277 192.403 364.991 192.069C364.704 191.729 364.311 191.559 363.811 191.559C363.304 191.559 362.907 191.726 362.621 192.059C362.334 192.393 362.191 192.853 362.191 193.439C362.191 194.026 362.334 194.486 362.621 194.819C362.907 195.146 363.304 195.309 363.811 195.309ZM369.562 196.069C369.115 196.069 368.722 195.966 368.382 195.759C368.049 195.553 367.789 195.259 367.602 194.879C367.415 194.499 367.322 194.056 367.322 193.549C367.322 193.043 367.415 192.599 367.602 192.219C367.789 191.839 368.049 191.546 368.382 191.339C368.722 191.133 369.115 191.029 369.562 191.029C370.002 191.029 370.392 191.133 370.732 191.339C371.072 191.546 371.332 191.839 371.512 192.219C371.699 192.599 371.792 193.043 371.792 193.549C371.792 194.056 371.699 194.499 371.512 194.879C371.332 195.259 371.072 195.553 370.732 195.759C370.392 195.966 370.002 196.069 369.562 196.069ZM369.552 195.529C370.065 195.529 370.462 195.359 370.742 195.019C371.022 194.679 371.162 194.189 371.162 193.549C371.162 192.923 371.019 192.436 370.732 192.089C370.452 191.736 370.062 191.559 369.562 191.559C369.055 191.559 368.662 191.736 368.382 192.089C368.102 192.436 367.962 192.923 367.962 193.549C367.962 194.189 368.099 194.679 368.372 195.019C368.645 195.359 369.039 195.529 369.552 195.529Z" fill="#7F8DA3"/>
<circle opacity="0.6" cx="299" cy="183.999" r="15" fill="#D6DBEB"/>
<path d="M299 185.764C302.276 185.764 304.541 187.36 305.818 189.793C306.615 191.31 307.013 192.068 306.43 193.034C305.846 193.999 304.766 193.999 302.604 193.999H295.396C293.234 193.999 292.154 193.999 291.57 193.034C290.987 192.068 291.385 191.31 292.182 189.793C293.459 187.36 295.724 185.764 299 185.764Z" fill="#B4BED7"/>
<ellipse cx="299" cy="179.293" rx="5.53846" ry="5.29412" fill="#B4BED7"/>
<path d="M386.308 47.3073C385.897 47.7179 385.897 48.3837 386.308 48.7944L391.513 53.9993L386.308 59.2042C385.897 59.6148 385.897 60.2806 386.308 60.6913C386.719 61.1019 387.384 61.1019 387.795 60.6913L393 55.4864L398.205 60.6913C398.616 61.1019 399.281 61.1019 399.692 60.6913C400.103 60.2806 400.103 59.6148 399.692 59.2042L394.487 53.9993L399.692 48.7944C400.103 48.3837 400.103 47.7179 399.692 47.3073C399.281 46.8966 398.616 46.8966 398.205 47.3073L393 52.5122L387.795 47.3073C387.384 46.8966 386.719 46.8966 386.308 47.3073Z" fill="#B4BED7"/>
<rect opacity="0.2" x="60" y="34" width="40" height="40" rx="20" fill="#1CCCE3"/>
<path fill-rule="evenodd" clip-rule="evenodd" d="M83.1627 41.0338L90.5875 47.7468C91.2167 48.3156 91.579 49.1473 91.579 50.0228V62.5847C91.579 64.2383 90.3117 65.5788 88.7484 65.5788H73.357C71.7937 65.5788 70.5264 64.2383 70.5264 62.5847V43.3098C70.5264 41.6562 71.7937 40.3157 73.357 40.3157H81.3236C81.9979 40.3157 82.6501 40.5703 83.1627 41.0338ZM75.7895 58.2105H86.3158C86.8971 58.2105 87.3684 58.6818 87.3684 59.2632C87.3684 59.8445 86.8971 60.3158 86.3158 60.3158H75.7895C75.2081 60.3158 74.7368 59.8445 74.7368 59.2632C74.7368 58.6818 75.2081 58.2105 75.7895 58.2105ZM86.3158 52.9474H75.7895C75.2081 52.9474 74.7368 53.4186 74.7368 54C74.7368 54.5814 75.2081 55.0526 75.7895 55.0526H86.3158C86.8971 55.0526 87.3684 54.5814 87.3684 54C87.3684 53.4186 86.8971 52.9474 86.3158 52.9474Z" fill="#1CCCE3"/>
<path d="M90.5876 47.7468L83.1628 41.0338C82.6502 40.5703 82.1054 40.3157 81.0527 40.3157V47.7894C81.0527 48.8939 81.9482 49.7894 83.0527 49.7894H91.5791C91.5791 48.9138 91.2168 48.3156 90.5876 47.7468Z" fill="url(#paint0_linear)"/>
<path d="M129.972 51.7359C129.972 52.3342 129.831 52.8987 129.549 53.4292C129.266 53.9598 128.815 54.3944 128.194 54.7331C127.573 55.0605 126.777 55.2241 125.806 55.2241H123.673V59.9993H121.742V48.2308H125.806C126.709 48.2308 127.471 48.3888 128.092 48.7049C128.725 49.0097 129.193 49.4274 129.498 49.958C129.814 50.4885 129.972 51.0812 129.972 51.7359ZM125.806 53.6494C126.54 53.6494 127.088 53.4857 127.449 53.1583C127.81 52.8197 127.991 52.3455 127.991 51.7359C127.991 50.449 127.263 49.8056 125.806 49.8056H123.673V53.6494H125.806ZM133.743 52.0238C134.026 51.5497 134.398 51.1828 134.861 50.9232C135.335 50.6522 135.894 50.5168 136.537 50.5168V52.5149H136.046C135.29 52.5149 134.714 52.7068 134.319 53.0906C133.935 53.4744 133.743 54.1404 133.743 55.0887V59.9993H131.813V50.6692H133.743V52.0238ZM142.359 60.1517C141.478 60.1517 140.682 59.9541 139.971 59.559C139.26 59.1526 138.701 58.5882 138.295 57.8657C137.888 57.1319 137.685 56.2853 137.685 55.3257C137.685 54.3775 137.894 53.5365 138.312 52.8027C138.729 52.069 139.299 51.5045 140.022 51.1094C140.744 50.7143 141.552 50.5168 142.443 50.5168C143.335 50.5168 144.142 50.7143 144.865 51.1094C145.587 51.5045 146.157 52.069 146.575 52.8027C146.993 53.5365 147.202 54.3775 147.202 55.3257C147.202 56.274 146.987 57.115 146.558 57.8488C146.129 58.5825 145.542 59.1526 144.797 59.559C144.063 59.9541 143.25 60.1517 142.359 60.1517ZM142.359 58.4753C142.855 58.4753 143.318 58.3568 143.747 58.1197C144.187 57.8826 144.543 57.527 144.814 57.0529C145.085 56.5788 145.22 56.0031 145.22 55.3257C145.22 54.6484 145.091 54.0783 144.831 53.6155C144.571 53.1414 144.227 52.7858 143.798 52.5487C143.369 52.3117 142.906 52.1931 142.409 52.1931C141.913 52.1931 141.45 52.3117 141.021 52.5487C140.603 52.7858 140.27 53.1414 140.022 53.6155C139.774 54.0783 139.649 54.6484 139.649 55.3257C139.649 56.3304 139.903 57.1094 140.411 57.6625C140.931 58.2044 141.58 58.4753 142.359 58.4753ZM150.092 49.433C149.742 49.433 149.448 49.3145 149.211 49.0775C148.974 48.8404 148.856 48.5469 148.856 48.1969C148.856 47.847 148.974 47.5535 149.211 47.3164C149.448 47.0794 149.742 46.9608 150.092 46.9608C150.431 46.9608 150.718 47.0794 150.956 47.3164C151.193 47.5535 151.311 47.847 151.311 48.1969C151.311 48.5469 151.193 48.8404 150.956 49.0775C150.718 49.3145 150.431 49.433 150.092 49.433ZM151.04 61.828C151.04 62.7424 150.809 63.4028 150.346 63.8092C149.894 64.2269 149.234 64.4357 148.365 64.4357H147.366V62.8102H148.026C148.421 62.8102 148.698 62.7311 148.856 62.5731C149.025 62.4263 149.11 62.178 149.11 61.828V50.6692H151.04V61.828ZM162.126 55.1056C162.126 55.4556 162.103 55.7717 162.058 56.0539H154.929C154.986 56.7989 155.262 57.3972 155.759 57.8488C156.256 58.3003 156.865 58.5261 157.588 58.5261C158.626 58.5261 159.36 58.0915 159.789 57.2222H161.872C161.59 58.0802 161.076 58.7857 160.331 59.3389C159.597 59.8807 158.683 60.1517 157.588 60.1517C156.696 60.1517 155.894 59.9541 155.183 59.559C154.483 59.1526 153.93 58.5882 153.524 57.8657C153.129 57.1319 152.931 56.2853 152.931 55.3257C152.931 54.3662 153.123 53.5252 153.507 52.8027C153.902 52.069 154.449 51.5045 155.149 51.1094C155.861 50.7143 156.673 50.5168 157.588 50.5168C158.468 50.5168 159.253 50.7087 159.941 51.0925C160.63 51.4763 161.166 52.0182 161.55 52.7181C161.934 53.4067 162.126 54.2025 162.126 55.1056ZM160.111 54.496C160.099 53.7848 159.845 53.2148 159.349 52.7858C158.852 52.3568 158.237 52.1423 157.503 52.1423C156.837 52.1423 156.267 52.3568 155.793 52.7858C155.319 53.2035 155.036 53.7736 154.946 54.496H160.111ZM163.382 55.3257C163.382 54.3662 163.574 53.5252 163.958 52.8027C164.353 52.069 164.895 51.5045 165.583 51.1094C166.272 50.7143 167.062 50.5168 167.954 50.5168C169.083 50.5168 170.014 50.7877 170.748 51.3295C171.493 51.8601 171.995 52.6221 172.255 53.6155H170.172C170.003 53.1527 169.732 52.7914 169.359 52.5318C168.987 52.2722 168.518 52.1423 167.954 52.1423C167.164 52.1423 166.532 52.4246 166.057 52.989C165.595 53.5421 165.363 54.3211 165.363 55.3257C165.363 56.3304 165.595 57.115 166.057 57.6794C166.532 58.2439 167.164 58.5261 167.954 58.5261C169.071 58.5261 169.811 58.035 170.172 57.0529H172.255C171.984 58.0012 171.476 58.7575 170.731 59.3219C169.986 59.8751 169.06 60.1517 167.954 60.1517C167.062 60.1517 166.272 59.9541 165.583 59.559C164.895 59.1526 164.353 58.5882 163.958 57.8657C163.574 57.1319 163.382 56.2853 163.382 55.3257ZM176.431 52.2439V57.4085C176.431 57.7585 176.51 58.0125 176.668 58.1705C176.837 58.3173 177.119 58.3906 177.514 58.3906H178.7V59.9993H177.176C176.307 59.9993 175.641 59.7961 175.178 59.3897C174.715 58.9833 174.483 58.3229 174.483 57.4085V52.2439H173.383V50.6692H174.483V48.3493H176.431V50.6692H178.7V52.2439H176.431ZM184.37 49.4161V47.6551H187.892V59.9993H185.944V49.4161H184.37Z" fill="#58677C"/>
<defs>
<filter id="filter0_d" x="0" y="0" width="460" height="423" filterUnits="userSpaceOnUse" color-interpolation-filters="sRGB">
<feFlood flood-opacity="0" result="BackgroundImageFix"/>
<feColorMatrix in="SourceAlpha" type="matrix" values="0 0 0 0 0 0 0 0 0 0 0 0 0 0 0 0 0 0 127 0"/>
<feOffset dy="10"/>
<feGaussianBlur stdDeviation="15"/>
<feColorMatrix type="matrix" values="0 0 0 0 0.165764 0 0 0 0 0.1856 0 0 0 0 0.258333 0 0 0 1 0"/>
<feBlend mode="normal" in2="BackgroundImageFix" result="effect1_dropShadow"/>
<feBlend mode="normal" in="SourceGraphic" in2="effect1_dropShadow" result="shape"/>
</filter>
<linearGradient id="paint0_linear" x1="91.579" y1="40.3157" x2="81.0527" y2="49.7894" gradientUnits="userSpaceOnUse">
<stop offset="0.234375" stop-color="#1CCCE3"/>
<stop offset="1" stop-color="#31A6D8"/>
</linearGradient>
</defs>
</svg>
